<svg width="52" height="77" viewBox="0 0 52 77" fill="none" xmlns="http://www.w3.org/2000/svg">
<path d="M12.6013 75.7166H3.61797C2.59126 75.7166 1.69299 74.9466 1.69299 73.9199V72.5082C1.69299 71.4815 2.59126 70.5832 3.61797 70.5832H12.7296C13.7563 70.5832 14.6545 71.4815 14.6545 72.5082V73.9199C14.5263 74.9466 13.628 75.7166 12.6013 75.7166Z" fill="#FCC309"/>
<path d="M8.62283 6.80162L8.10956 1.28326L7.59628 6.80162C7.08301 11.6783 6.82629 16.8116 6.82629 21.8166V29.5166H9.39297V21.8166C9.39282 16.8116 9.13626 11.6783 8.62283 6.80162Z" fill="#FCC309"/>
<path d="M4.25952 21.8167V29.5168H6.8262V21.8167C6.8262 16.6834 7.08292 11.6784 7.59619 6.80177L8.10947 1.28342L6.44121 6.80177C5.02951 11.6783 4.25952 16.8116 4.25952 21.8167Z" fill="white"/>
<path d="M9.77776 6.80162L8.1095 1.28326L8.62277 6.80162C9.13605 11.6783 9.39276 16.8116 9.39276 21.8166V29.5166H11.9594V21.8166C11.9594 16.8116 11.1895 11.6783 9.77776 6.80162Z" fill="#FD9808"/>
<path d="M10.4194 29.5166H5.7995L4.25952 34.65V65.45L4.90123 69.4284C4.90123 70.1984 5.28622 70.5834 5.7995 70.5834H10.5479C10.9329 70.5834 11.3179 70.0701 11.4461 69.4284L11.9594 65.45V34.65L10.4194 29.5166Z" fill="#FFDD09"/>
<path d="M4.90111 69.4282L4.2594 65.4499V34.65L5.79938 29.5166H4.25955L1.69287 34.65V65.45L2.71958 69.4284C2.84786 70.1984 3.48956 70.5834 4.13127 70.5834H5.67125C5.2861 70.5832 4.90111 70.1982 4.90111 69.4282Z" fill="white"/>
<path d="M11.9594 29.5166H10.4194L11.9594 34.65V65.45L11.3177 69.4284C11.3177 70.1984 10.9327 70.5834 10.4194 70.5834H11.9594C12.6011 70.5834 13.2427 70.0701 13.4994 69.4284L14.5261 65.45V34.65L11.9594 29.5166Z" fill="#FD9808"/>
<path d="M30.5679 75.7166H21.4563C20.4296 75.7166 19.5314 74.8183 19.5314 73.7916V72.3799C19.5314 71.3532 20.4296 70.455 21.4563 70.455H30.5679C31.5946 70.455 32.4929 71.3532 32.4929 72.3799V73.7916C32.4929 74.9466 31.5946 75.7166 30.5679 75.7166Z" fill="#FCC309"/>
<path d="M26.5896 13.2183L26.0764 7.69991L25.5631 13.2183C25.0498 18.0949 24.7931 23.2283 24.7931 28.2332V35.9333H27.3598V28.2332C27.3596 23.2283 27.1029 18.0951 26.5896 13.2183Z" fill="#FCC309"/>
<path d="M22.2262 28.2333V35.9334H24.7929V28.2333C24.7929 23.1 25.0496 18.0951 25.5629 13.2184L26.0761 7.70004L24.4079 13.2184C22.9962 18.0951 22.2262 23.2283 22.2262 28.2333Z" fill="white"/>
<path d="M27.7445 13.2183L26.0763 7.69991L26.5896 13.2183C27.1028 18.0949 27.3596 23.2283 27.3596 28.2332V35.9333H29.9262V28.2332C29.9262 23.2283 29.1561 18.0951 27.7445 13.2183Z" fill="#FD9808"/>
<path d="M28.3861 35.9332H23.7662L22.2262 41.0666V65.4499L22.8679 69.4282C22.9962 70.0699 23.3812 70.5832 23.7662 70.5832H28.5145C28.8995 70.5832 29.2845 70.0699 29.4128 69.4282L29.9261 65.4499V41.0666L28.3861 35.9332Z" fill="#FFDD09"/>
<path d="M22.8678 69.4282L22.2261 65.4499V41.0666L23.7661 35.9332H22.2261L19.6594 41.0666V65.4499L20.6861 69.4282C20.8144 70.0699 21.4561 70.5832 22.2261 70.5832H23.7661C23.2528 70.5832 22.8678 70.1982 22.8678 69.4282Z" fill="white"/>
<path d="M29.9262 35.9332H28.3862L29.9262 41.0666V65.4499L29.2845 69.4282C29.1562 70.0699 28.7712 70.5832 28.3862 70.5832H29.9262C30.5679 70.5832 31.2095 70.0699 31.4662 69.4282L32.4929 65.4499V41.0666L29.9262 35.9332Z" fill="#FD9808"/>
<path d="M48.5342 75.7166H39.4227C38.396 75.7166 37.4977 74.8183 37.4977 73.7916V72.3799C37.4977 71.3532 38.396 70.455 39.4227 70.455H48.5342C49.561 70.455 50.4592 71.3532 50.4592 72.3799V73.7916C50.4594 74.9466 49.561 75.7166 48.5342 75.7166Z" fill="#FCC309"/>
<path d="M44.5561 18.3516L44.0428 12.8333L43.5295 18.3516C43.0162 23.2283 42.7595 28.3616 42.7595 33.3666V41.0666H45.3262V33.3666C45.3261 28.3616 45.0693 23.2283 44.5561 18.3516Z" fill="#FCC309"/>
<path d="M40.1929 33.3666V41.0666H42.7595V33.3666C42.7595 28.2332 43.0163 23.2283 43.5295 18.3516L44.0428 12.8333L42.3746 18.3516C40.9629 23.2283 40.1929 28.3616 40.1929 33.3666Z" fill="white"/>
<path d="M45.7111 18.3516L44.0428 12.8333L44.5561 18.3516C45.0694 23.2283 45.3261 28.3616 45.3261 33.3666V41.0666H47.8928V33.3666C47.8928 28.3616 47.1228 23.2283 45.7111 18.3516Z" fill="#FD9808"/>
<path d="M46.3529 41.0666H41.733L40.193 46.2V65.45L40.8347 69.4284C40.963 70.0701 41.348 70.5834 41.733 70.5834H46.4813C46.8663 70.5834 47.2513 70.0701 47.3796 69.4284L47.8929 65.45V46.2L46.3529 41.0666Z" fill="#FFDD09"/>
<path d="M40.8345 69.4282L40.1928 65.4499V46.2L41.7328 41.0666H40.1928L37.6261 46.2V65.45L38.6528 69.4284C38.7811 70.0701 39.4228 70.5834 40.1928 70.5834H41.7328C41.2195 70.5832 40.8345 70.1982 40.8345 69.4282Z" fill="white"/>
<path d="M47.8928 41.0666H46.3528L47.8928 46.2V65.45L47.2511 69.4284C47.1228 70.0701 46.7378 70.5834 46.3528 70.5834H47.8928C48.5345 70.5834 49.176 70.0701 49.4327 69.4284L50.4594 65.45V46.2L47.8928 41.0666Z" fill="#FD9808"/>
<path d="M32.4927 66.7333H19.6595C18.8895 66.7333 18.3762 66.22 18.3762 65.45V39.7834C18.3762 39.0134 18.8895 38.5001 19.6595 38.5001H32.4927C33.2627 38.5001 33.776 39.0134 33.776 39.7834V65.45C33.7762 66.22 33.2627 66.7333 32.4927 66.7333ZM20.9427 64.1666H31.2095V41.0666H20.9427V64.1666Z" fill="#CE9912"/>
<path d="M30.0544 71.8666H22.2261C20.9428 71.8666 19.7877 70.9684 19.5311 69.685L18.3761 65.835C18.2478 65.45 18.3761 65.065 18.6328 64.68C18.8896 64.4233 19.2746 64.1667 19.6595 64.1667H32.4928C32.8778 64.1667 33.2628 64.295 33.5195 64.68C33.7762 65.065 33.7762 65.45 33.7762 65.835L32.7495 69.8134C32.4927 71.0967 31.3377 71.8666 30.0544 71.8666ZM21.3277 66.7333L21.9694 69.1717C21.9694 69.3 22.0976 69.3 22.2261 69.3H30.0544C30.1827 69.3 30.3111 69.1717 30.3111 69.1717L30.9528 66.7333H21.3277Z" fill="#CE9912"/>
<path d="M30.5678 77H21.4562C19.6595 77 18.2478 75.5883 18.2478 73.7916V72.3799C18.2478 70.5832 19.6595 69.1715 21.4562 69.1715H30.5678C32.3645 69.1715 33.7762 70.5832 33.7762 72.3799V73.7916C33.7762 75.5883 32.3645 77 30.5678 77ZM21.5845 71.8666C21.1995 71.8666 20.9428 72.1233 20.9428 72.5083V73.92C20.9428 74.305 21.1995 74.5617 21.5845 74.5617H30.6961C31.0811 74.5617 31.3378 74.305 31.3378 73.92V72.5083C31.3378 72.1233 31.0811 71.8666 30.6961 71.8666H21.5845Z" fill="#CE9912"/>
<path d="M32.4928 41.0666H19.6595C19.2745 41.0666 18.7613 40.8099 18.5045 40.4249C18.2478 40.0399 18.2478 39.5266 18.5045 39.1416L21.0712 34.0083C21.3279 33.6233 21.7129 33.2383 22.2262 33.2383H29.9263C30.4395 33.2383 30.8245 33.495 31.0812 34.0083L33.6478 39.1416C33.9045 39.5266 33.7761 40.0399 33.6478 40.4249C33.5195 40.8099 32.8778 41.0666 32.4928 41.0666ZM21.7128 38.4999H30.4394L29.1561 35.9332H22.996L21.7128 38.4999Z" fill="#CE9912"/>
<path d="M29.9262 35.9332H22.2261C21.4561 35.9332 20.9429 35.42 20.9429 34.65V26.9499C20.9429 26.1799 21.4561 25.6667 22.2261 25.6667H29.9262C30.6962 25.6667 31.2094 26.1799 31.2094 26.9499V34.65C31.2094 35.42 30.6962 35.9332 29.9262 35.9332ZM23.5094 33.3666H28.6428V28.2332H23.5094V33.3666Z" fill="#CE9912"/>
<path d="M29.9262 28.2333H22.2261C21.4561 28.2333 20.9429 27.7201 20.9429 26.9501C20.9429 21.6884 21.7129 16.5551 23.2528 11.5501L24.7928 6.03178C25.0495 5.51851 25.5628 5.13351 26.0761 5.13351C26.5894 5.13351 27.1028 5.51851 27.3593 6.03178L28.8993 11.5501C30.4393 16.5551 31.2093 21.8169 31.2093 26.9501C31.2094 27.7199 30.6962 28.2333 29.9262 28.2333ZM23.5094 25.6667H28.6428C28.5145 21.175 27.8728 16.5551 26.4611 12.1917L26.0761 10.9084L25.6911 12.3201C24.4078 16.6834 23.6378 21.175 23.5094 25.6667Z" fill="#CE9912"/>
<path d="M14.5262 66.7333H1.69293C0.922943 66.7333 0.409668 66.22 0.409668 65.45V34.65C0.409668 33.88 0.922943 33.3667 1.69293 33.3667H14.5262C15.2962 33.3667 15.8095 33.88 15.8095 34.65V65.45C15.8096 66.22 15.2962 66.7333 14.5262 66.7333ZM2.9762 64.1666H13.2429V35.9332H2.9762V64.1666Z" fill="#CE9912"/>
<path d="M12.0878 71.8666H4.13109C2.84782 71.8666 1.69269 70.9684 1.43613 69.685L0.409424 65.835C0.409424 65.45 0.409424 65.065 0.666138 64.68C0.922852 64.4233 1.30785 64.1667 1.69284 64.1667H14.5261C14.9111 64.1667 15.2961 64.295 15.5528 64.68C15.8095 65.065 15.8095 65.45 15.8095 65.835L14.7828 69.8134C14.5261 71.0967 13.3711 71.8666 12.0878 71.8666ZM3.3611 66.7333L4.00281 69.1717C4.00281 69.3 4.00281 69.3 4.13109 69.3H11.9594C12.0877 69.3 12.2161 69.1717 12.2161 69.1717L12.8578 66.7333H3.3611Z" fill="#CE9912"/>
<path d="M12.6011 77H3.61781C1.82112 77 0.409424 75.5883 0.409424 73.92V72.5083C0.409424 70.7117 1.82112 69.3 3.61781 69.3H12.7294C14.5261 69.3 15.9378 70.7117 15.9378 72.5083V73.92C15.8095 75.5883 14.3978 77 12.6011 77ZM3.61781 71.8666C3.23282 71.8666 2.97611 72.1234 2.97611 72.5083V73.92C2.97611 74.1768 3.23282 74.4333 3.61781 74.4333H12.7294C12.9861 74.4333 13.2427 74.1766 13.2427 73.92V72.5083C13.2427 72.1234 12.986 71.8666 12.601 71.8666H3.61781Z" fill="#CE9912"/>
<path d="M14.5261 35.9332H1.69286C1.30786 35.9332 0.794586 35.6765 0.537872 35.2915C0.281158 34.9065 0.281158 34.3933 0.537872 34.0083L3.10455 28.8749C3.36127 28.4899 3.74626 28.2332 4.25954 28.2332H11.9596C12.4729 28.2332 12.8579 28.4899 13.1146 29.0032L15.6812 34.1365C15.938 34.5215 15.8095 35.0348 15.6812 35.4198C15.4245 35.805 14.9111 35.9332 14.5261 35.9332ZM3.74611 33.3665H12.4727L11.1894 30.7999H5.02937L3.74611 33.3665Z" fill="#CE9912"/>
<path d="M11.9595 30.8H4.25958C3.48959 30.8 2.97632 30.2868 2.97632 29.5168V21.8167C2.97632 21.0467 3.48959 20.5335 4.25958 20.5335H11.9596C12.7296 20.5335 13.2429 21.0467 13.2429 21.8167V29.5168C13.2429 30.2866 12.7295 30.8 11.9595 30.8ZM5.54285 28.2334H10.6762V23.1H5.54285V28.2334Z" fill="#CE9912"/>
<path d="M11.9595 23.1H4.25958C3.48959 23.1 2.97632 22.5867 2.97632 21.8167C2.97632 16.6834 3.74631 11.4217 5.28629 6.41678L6.82626 0.898423C7.08283 0.384995 7.59625 0 8.10953 0C8.6228 0 9.13623 0.384995 9.39279 0.89827L10.9328 6.41663C12.4728 11.4216 13.2427 16.6834 13.2427 21.8166C13.2429 22.5867 12.7295 23.1 11.9595 23.1ZM5.54285 20.5333H10.6762C10.5479 16.0416 9.77794 11.55 8.49452 7.18662L8.10953 5.77492L7.72453 7.18662C6.44127 11.55 5.67113 16.0416 5.54285 20.5333Z" fill="#CE9912"/>
<path d="M50.4595 66.7333H37.6263C36.8563 66.7333 36.343 66.22 36.343 65.45V44.9166C36.343 44.1466 36.8563 43.6333 37.6263 43.6333H50.4595C51.2295 43.6333 51.7428 44.1466 51.7428 44.9166V65.4499C51.7428 66.22 51.2295 66.7333 50.4595 66.7333ZM38.9095 64.1666H49.1763V46.2H38.9095V64.1666V64.1666Z" fill="#CE9912"/>
<path d="M48.0211 71.8666H40.1927C38.9095 71.8666 37.7543 70.9684 37.4978 69.685L36.3428 65.835C36.2145 65.45 36.3428 65.065 36.5995 64.68C36.8562 64.295 37.2412 64.1667 37.6262 64.1667H50.4595C50.8445 64.1667 51.2295 64.295 51.4862 64.68C51.7429 65.065 51.7429 65.45 51.7429 65.835L50.7162 69.8134C50.4595 71.0967 49.3043 71.8666 48.0211 71.8666ZM39.2945 66.7333L39.9362 69.1717C39.9362 69.3 40.0645 69.3 40.1929 69.3H48.0212C48.1495 69.3 48.2779 69.1717 48.2779 69.1717L48.9196 66.7333H39.2945Z" fill="#CE9912"/>
<path d="M48.5343 77H39.4227C37.6261 77 36.2144 75.5883 36.2144 73.7916V72.3799C36.2144 70.5832 37.6261 69.1715 39.4227 69.1715H48.5343C50.331 69.1715 51.7427 70.5832 51.7427 72.3799V73.7916C51.7427 75.5883 50.331 77 48.5343 77ZM39.551 71.8666C39.166 71.8666 38.9093 72.1233 38.9093 72.5083V73.92C38.9093 74.305 39.166 74.5617 39.551 74.5617H48.6626C49.0476 74.5617 49.3043 74.305 49.3043 73.92V72.5083C49.3043 72.1233 49.0476 71.8666 48.6626 71.8666H39.551Z" fill="#CE9912"/>
<path d="M50.4595 46.2H37.6262C37.2412 46.2 36.7279 45.9433 36.4712 45.5583C36.2145 45.1733 36.2145 44.66 36.4712 44.275L39.0377 39.1416C39.2945 38.7566 39.6795 38.3716 40.1927 38.3716H47.8928C48.4061 38.3716 48.791 38.6284 49.0478 39.1416L51.6144 44.275C51.8712 44.66 51.7427 45.1733 51.6144 45.5583C51.4862 45.9433 50.8445 46.2 50.4595 46.2ZM39.6795 43.6333H48.4061L47.1228 41.0666H40.9627L39.6795 43.6333Z" fill="#CE9912"/>
<path d="M47.8929 41.0666H40.1928C39.4228 41.0666 38.9095 40.5533 38.9095 39.7833V32.0833C38.9095 31.3133 39.4228 30.8 40.1928 30.8H47.8929C48.6628 30.8 49.1761 31.3133 49.1761 32.0833V39.7833C49.1761 40.5533 48.6628 41.0666 47.8929 41.0666ZM41.4761 38.4999H46.6094V33.3666H41.4761V38.4999Z" fill="#CE9912"/>
<path d="M47.8929 33.3666H40.1928C39.4228 33.3666 38.9095 32.8533 38.9095 32.0833C38.9095 26.8216 39.6795 21.6883 41.2195 16.6834L42.7595 11.165C43.0162 10.6517 43.5295 10.2667 44.0428 10.2667C44.556 10.2667 45.0695 10.6517 45.326 11.165L46.9943 16.6834C48.5343 21.6883 49.3043 26.9501 49.3043 32.0833C49.1761 32.8533 48.6629 33.3666 47.8929 33.3666ZM41.4761 30.8H46.6094C46.4812 26.3084 45.8395 21.6884 44.4278 17.3251L44.0428 16.0418L43.6578 17.4535C42.3745 21.8167 41.6045 26.3084 41.4761 30.8Z" fill="#CE9912"/>
</svg>
