<svg width="68" height="69" viewBox="0 0 68 69" fill="none" xmlns="http://www.w3.org/2000/svg">
<path d="M60.9645 34.2468V35.6982C60.9645 43.8252 47.3167 50.4129 30.4823 50.4129C21.1899 50.4129 12.8741 48.4034 7.28296 45.2379C9.16817 52.5595 21.9801 58.6196 37.5166 58.6196C54.351 58.6196 67.9988 51.5056 67.9988 43.3785C67.9988 39.8051 65.3539 36.656 60.9645 34.2468Z" fill="#FCC62D"/>
<path d="M37.5165 58.6196C20.6821 58.6196 7.0343 51.5056 7.0343 43.3785V53.2829C7.0343 61.4099 20.6821 67.9988 37.5165 67.9988C54.3509 67.9988 67.9987 61.4099 67.9987 53.2829V43.3785C67.9987 51.5056 54.3509 58.6196 37.5165 58.6196Z" fill="#FBBD50"/>
<path d="M10.5515 60.2012C11.2432 60.8331 12.0276 61.4381 12.8963 62.0126V52.2922C12.0276 51.6943 11.2432 51.0671 10.5515 50.4129V60.2012Z" fill="#CE9912"/>
<path d="M62.1368 52.2922V62.0126C63.0056 61.4393 63.7899 60.8331 64.4816 60.2012V50.4129C63.7911 51.0671 63.0068 51.6943 62.1368 52.2922Z" fill="#CE9912"/>
<path d="M15.2411 63.3796C15.982 63.7629 16.7652 64.1252 17.5859 64.4687V54.8633C16.7652 54.5022 15.982 54.1212 15.2411 53.7202V63.3796Z" fill="#CE9912"/>
<path d="M57.4473 64.4676C58.2679 64.1252 59.0511 63.7618 59.7921 63.3784V53.7191C59.0511 54.12 58.2679 54.5022 57.4473 54.8621V64.4676Z" fill="#CE9912"/>
<path d="M19.9307 65.3551C20.688 65.6142 21.47 65.8557 22.2754 66.0808V56.568C21.47 56.3288 20.688 56.0721 19.9307 55.7989V65.3551Z" fill="#CE9912"/>
<path d="M52.7577 66.0808C53.5631 65.8557 54.3451 65.6142 55.1025 65.3551V55.7989C54.3451 56.0721 53.5631 56.3288 52.7577 56.568V66.0808Z" fill="#CE9912"/>
<path d="M25.7926 66.9249C26.5582 67.0796 27.3413 67.218 28.1374 67.3411V57.9103C27.3413 57.7779 26.5582 57.6301 25.7926 57.466V66.9249Z" fill="#CE9912"/>
<path d="M46.8958 67.3411C47.6918 67.2168 48.475 67.0785 49.2405 66.9249V57.4648C48.475 57.629 47.6918 57.7767 46.8958 57.9104V67.3411Z" fill="#CE9912"/>
<path d="M32.827 67.8804C33.5985 67.9378 34.3816 67.9777 35.1718 68.0058V58.6232C34.3816 58.5927 33.5985 58.5505 32.827 58.4883V67.8804Z" fill="#CE9912"/>
<path d="M39.8613 68.007C40.6515 67.9777 41.4347 67.939 42.2061 67.8816V58.4883C41.4347 58.5505 40.6515 58.5927 39.8613 58.6243V68.007Z" fill="#CE9912"/>
<path d="M30.4822 41.0255C13.6478 41.0255 0 33.9115 0 25.7844V35.6888C0 43.8158 13.6478 50.4047 30.4822 50.4047C47.3166 50.4047 60.9644 43.8158 60.9644 35.6888V25.7844C60.9644 33.9115 47.3166 41.0255 30.4822 41.0255Z" fill="#FBBD50"/>
<path d="M3.51721 42.6071C4.20892 43.239 4.99325 43.844 5.862 44.4185V34.6982C4.99325 34.1002 4.20892 33.473 3.51721 32.82V42.6071Z" fill="#CE9912"/>
<path d="M55.1024 34.6981V44.4184C55.9712 43.8451 56.7555 43.239 57.4472 42.6071V32.8188C56.7567 33.473 55.9723 34.1002 55.1024 34.6981Z" fill="#CE9912"/>
<path d="M8.20679 45.7854C8.94774 46.1688 9.7309 46.5311 10.5516 46.8746V37.2692C9.7309 36.9081 8.94774 36.5271 8.20679 36.1261V45.7854Z" fill="#CE9912"/>
<path d="M50.4128 46.8734C51.2335 46.5311 52.0167 46.1688 52.7576 45.7843V36.1249C52.0167 36.5259 51.2335 36.9081 50.4128 37.268V46.8734Z" fill="#CE9912"/>
<path d="M12.8964 47.7609C13.6537 48.02 14.4357 48.2616 15.2411 48.4867V38.9739C14.4357 38.7347 13.6537 38.4779 12.8964 38.2048V47.7609Z" fill="#CE9912"/>
<path d="M45.7234 48.4867C46.5288 48.2616 47.3108 48.02 48.0682 47.7609V38.2048C47.3108 38.4779 46.5288 38.7347 45.7234 38.9739V48.4867Z" fill="#CE9912"/>
<path d="M18.7583 49.3308C19.5239 49.4855 20.307 49.6239 21.1031 49.747V40.3163C20.307 40.1838 19.5239 40.0361 18.7583 39.8719V49.3308Z" fill="#CE9912"/>
<path d="M39.8613 49.7482C40.6574 49.6239 41.4405 49.4855 42.2061 49.332V39.8719C41.4405 40.0361 40.6574 40.1838 39.8613 40.3174V49.7482Z" fill="#CE9912"/>
<path d="M25.7926 50.2875C26.564 50.3449 27.3472 50.3848 28.1374 50.4129V41.0302C27.3472 40.9998 26.564 40.9576 25.7926 40.8954V50.2875Z" fill="#CE9912"/>
<path d="M32.827 50.4129C33.6172 50.3836 34.4004 50.3449 35.1718 50.2874V40.8942C34.4004 40.9564 33.6172 40.9986 32.827 41.0302V50.4129Z" fill="#CE9912"/>
<path d="M60.1636 39.043C57.0252 45.5568 44.9331 50.4129 30.4822 50.4129C25.0845 50.4129 20.0174 49.7329 15.6198 48.5453C19.8732 51.4329 27.4433 53.8902 37.5165 53.8902C53.5572 53.8902 63.3092 47.6636 63.3092 43.3785C63.3092 41.9482 62.2083 40.4311 60.1636 39.043Z" fill="#FFD949"/>
<path d="M36.3442 38.689C19.5098 38.689 5.86196 32.1001 5.86196 23.9731V17.3467C2.17948 19.6552 0 22.5498 0 25.7927C0 33.9197 13.6478 41.0338 30.4822 41.0338C38.5881 41.0338 45.9484 39.3819 51.4083 36.7639C46.9637 37.9867 41.8251 38.689 36.3442 38.689Z" fill="#FFD949"/>
<path d="M36.3442 29.3016C19.5098 29.3016 5.86194 22.1875 5.86194 14.0605V23.9649C5.86194 32.0919 19.5098 38.6808 36.3442 38.6808C53.1785 38.6808 66.8264 32.0919 66.8264 23.9649V14.0605C66.8264 22.1875 53.1785 29.3016 36.3442 29.3016Z" fill="#FBBD50"/>
<path d="M9.37915 30.8832C10.0709 31.5151 10.8552 32.12 11.7239 32.6945V22.9742C10.8552 22.3763 10.0709 21.7491 9.37915 21.096V30.8832Z" fill="#CE9912"/>
<path d="M60.9645 22.9742V32.6945C61.8332 32.1212 62.6176 31.5151 63.3093 30.8832V21.0948C62.6187 21.749 61.8344 22.3763 60.9645 22.9742Z" fill="#CE9912"/>
<path d="M14.0687 34.0615C14.8097 34.4449 15.5928 34.8072 16.4135 35.1507V25.5453C15.5928 25.1842 14.8097 24.8031 14.0687 24.4022V34.0615Z" fill="#CE9912"/>
<path d="M56.2749 35.1495C57.0956 34.8072 57.8787 34.4449 58.6197 34.0604V24.401C57.8787 24.802 57.0956 25.1842 56.2749 25.5441V35.1495Z" fill="#CE9912"/>
<path d="M18.7583 36.037C19.5157 36.2961 20.2977 36.5376 21.1031 36.7627V27.2499C20.2977 27.0108 19.5157 26.754 18.7583 26.4808V36.037Z" fill="#CE9912"/>
<path d="M51.5853 36.7627C52.3908 36.5376 53.1727 36.2961 53.9301 36.037V26.4808C53.1727 26.754 52.3908 27.0108 51.5853 27.2499V36.7627Z" fill="#CE9912"/>
<path d="M24.6202 37.6068C25.3858 37.7616 26.169 37.8999 26.965 38.023V28.5923C26.169 28.4598 25.3858 28.3121 24.6202 28.148V37.6068Z" fill="#CE9912"/>
<path d="M45.7234 38.0242C46.5194 37.8999 47.3026 37.7616 48.0682 37.608V28.148C47.3026 28.3121 46.5194 28.4598 45.7234 28.5935V38.0242Z" fill="#CE9912"/>
<path d="M31.6547 38.5635C32.4261 38.621 33.2093 38.6608 33.9994 38.689V29.3063C33.2093 29.2758 32.4261 29.2336 31.6547 29.1715V38.5635Z" fill="#CE9912"/>
<path d="M38.689 38.689C39.4792 38.6597 40.2623 38.621 41.0338 38.5635V29.1703C40.2623 29.2325 39.4792 29.2747 38.689 29.3063V38.689Z" fill="#CE9912"/>
<path d="M66.8264 14.0687C66.8264 22.1957 53.1785 29.3098 36.3442 29.3098C19.5098 29.3098 5.86194 22.1957 5.86194 14.0687C5.86194 5.94169 19.5098 0 36.3442 0C53.1785 0 66.8264 5.94169 66.8264 14.0687Z" fill="#FCC62D"/>
<path d="M36.3442 24.5804C20.3035 24.5804 10.5515 18.355 10.5515 14.0687C10.5515 9.78362 20.3035 3.51718 36.3442 3.51718C52.3848 3.51718 62.1368 9.78362 62.1368 14.0687C62.1368 18.355 52.3848 24.5804 36.3442 24.5804Z" fill="#FFD949"/>
<path d="M44.2942 15.662C45.2555 15.458 45.8195 14.8648 45.612 14.1883L45.3892 13.4661C45.2262 12.935 44.592 12.4918 43.8147 12.2714C42.7572 10.0122 40.0607 9.19389 36.0558 9.19389C35.8659 9.19389 35.6806 9.19858 35.4977 9.20561C34.1307 9.26189 32.7672 9.13058 31.7039 8.74134C31.2701 8.58307 30.9172 8.41776 30.6839 8.24542C30.5784 8.16804 30.3228 8.21729 30.3228 8.31577C30.3228 8.48694 30.3357 8.68976 30.3732 8.91486C30.5186 9.79064 30.3451 9.65933 29.4798 10.5328C28.978 11.0416 28.5783 11.6278 28.2887 12.2749C27.5161 12.4965 26.8853 12.9385 26.7224 13.4673L26.4996 14.1895C26.2921 14.8659 26.856 15.4592 27.8174 15.6632C28.0917 17.3936 29.2676 18.913 31.8316 19.7501L31.691 20.9659C31.6534 21.2906 31.3732 21.5908 30.9653 21.7385L25.7938 23.6049C28.8139 24.238 32.2561 24.6202 36.0558 24.6202C39.8027 24.6202 43.2015 24.2486 46.1911 23.6331L41.1322 21.742C40.7325 21.5919 40.4581 21.2942 40.4218 20.9753L40.2799 19.7501C42.8439 18.913 44.0198 17.3924 44.2942 15.662Z" fill="#F0C41B"/>
</svg>
