<svg width="62" height="74" viewBox="0 0 62 74" fill="none" xmlns="http://www.w3.org/2000/svg">
<path d="M35 17H27L26.5 29H16V36.5H25.5V69.5H36V36.5H46V29H35V17Z" fill="#FFD949"/>
<mask id="mask0" mask-type="alpha" maskUnits="userSpaceOnUse" x="0" y="0" width="62" height="74">
<path d="M0 0H62V74H0V0Z" fill="#C4C4C4"/>
</mask>
<g mask="url(#mask0)">
<path d="M51.8365 -29.451C52.2522 -30.3572 51.8479 -31.4259 50.9339 -31.8378C50.0201 -32.2499 48.9418 -31.8491 48.5266 -30.9428L30.4999 8.37798L12.4734 -30.9428C12.0579 -31.8491 10.9806 -32.2501 10.0661 -31.8378C9.15212 -31.4259 8.74784 -30.3572 9.16348 -29.451L28.6821 13.1244V14.9769H26.3365C25.3325 14.9769 24.5185 15.784 24.5185 16.7795V26.7576H14.8815C13.8775 26.7576 13.0635 27.5647 13.0635 28.5601V36.817C13.0635 37.8124 13.8775 38.6195 14.8815 38.6195H24.5185V71.1974C24.5185 72.1929 25.3325 73 26.3365 73H34.664C35.668 73 36.482 72.1929 36.482 71.1974V38.6193H46.1189C47.1229 38.6193 47.9369 37.8122 47.9369 36.8168V28.5599C47.9369 27.5644 47.1229 26.7573 46.1189 26.7573H36.482V16.7793C36.482 15.7838 35.668 14.9767 34.664 14.9767H32.3183V13.1241L51.8365 -29.451ZM34.6638 30.3625H44.3007V35.0142H34.6638C33.6598 35.0142 32.8458 35.8213 32.8458 36.8168V69.3947H28.1542V36.8168C28.1542 35.8213 27.3402 35.0142 26.3362 35.0142H16.6993V30.3625H26.3362C27.3402 30.3625 28.1542 29.5554 28.1542 28.5599V18.5818H32.8458V28.5599C32.8458 29.5554 33.6596 30.3625 34.6638 30.3625Z" fill="#DE9816"/>
</g>
</svg>
