<svg width="63" height="78" viewBox="0 0 63 78" fill="none" xmlns="http://www.w3.org/2000/svg">
<path d="M31.1999 1.29996L38.9999 9.09996H23.3999L31.1999 1.29996Z" fill="#FFD949"/>
<path d="M28.5998 19.5H20.7998L15.5999 9.09995H23.3999L28.5998 19.5Z" fill="#FFD949"/>
<path d="M46.7999 9.09995H38.9999L33.7999 19.5H41.5999L46.7999 9.09995Z" fill="#FFD949"/>
<path d="M23.3999 9.09995L28.5998 19.5H33.7999L38.9999 9.09995H23.3999Z" fill="#FFD949"/>
<path d="M15.6005 9.09996H23.4005L31.2005 1.29996H20.8004L15.6005 9.09996Z" fill="#FFD949"/>
<path d="M41.5999 1.29996H31.1998L38.9998 9.09996H46.7998L41.5999 1.29996Z" fill="#FFD949"/>
<path d="M31.2 68.9001C18.98 68.9001 9.09993 59.0201 9.09993 46.8C9.09993 34.5799 18.98 24.6999 31.2 24.6999C43.4199 24.6999 53.3 34.5801 53.3 46.8C53.3 59.02 43.4199 68.9001 31.2 68.9001ZM41.6 19.5H20.7999C9.74998 23.9199 1.29993 34.1901 1.29993 46.8C1.29993 63.31 14.6899 76.7001 31.2 76.7001C47.7101 76.7001 61.1 63.31 61.1 46.8C61.1 34.1901 52.7799 23.9199 41.6 19.5Z" fill="#FFE100"/>
<path d="M42.9001 9.09998L37.7002 19.5H41.6002L46.8001 9.09998H42.9001Z" fill="#FBBD50"/>
<path d="M41.6004 1.29996H37.7004L42.9004 9.09996H46.8004L41.6004 1.29996Z" fill="#FBBD50"/>
<path d="M41.6 19.5H37.7C48.75 23.9199 57.2 34.1901 57.2 46.8C57.2 62.6601 44.85 75.66 29.25 76.57C29.9001 76.57 30.5499 76.6999 31.2 76.6999C47.7099 76.6999 61.1 63.31 61.1 46.7998C61.1 34.1901 52.7799 23.9199 41.6 19.5Z" fill="#FFA800"/>
<path d="M19.5 9.09998L24.6999 19.5H20.7999L15.6 9.09998H19.5Z" fill="white"/>
<path d="M20.7999 1.29996H24.6999L19.5 9.09996H15.6L20.7999 1.29996Z" fill="white"/>
<path d="M20.7998 19.5H24.6998C13.6499 23.9199 5.1998 34.1901 5.1998 46.8C5.1998 62.6601 17.5499 75.66 33.1499 76.57C32.4998 76.6999 31.8499 76.6999 31.1999 76.6999C14.6899 76.6999 1.2998 63.31 1.2998 46.7998C1.2998 34.1901 9.74986 23.9199 20.7998 19.5Z" fill="white"/>
<path d="M31.2 78C14.04 78 0 63.96 0 46.8C0 34.32 7.92995 23.1399 20.28 18.33C20.41 18.33 20.5401 18.2 20.7999 18.2H41.5999C41.7298 18.2 41.9899 18.2 42.1198 18.33C54.47 23.1399 62.4 34.32 62.4 46.8C62.4 63.96 48.4899 78 31.2 78ZM21.06 20.7999C9.87995 25.35 2.60005 35.49 2.60005 46.8C2.60005 62.5299 15.4701 75.3999 31.2 75.3999C46.9299 75.3999 59.7999 62.5299 59.7999 46.8C59.7999 35.49 52.5199 25.35 41.34 20.7999H21.06ZM31.2 70.2C18.33 70.2 7.8 59.67 7.8 46.8C7.8 33.93 18.33 23.4 31.2 23.4C44.07 23.4 54.6 33.93 54.6 46.8C54.6 59.67 44.1999 70.2 31.2 70.2ZM31.2 26C19.7601 26 10.4001 35.36 10.4001 46.8C10.4001 58.2399 19.7601 67.5999 31.2 67.5999C42.64 67.5999 51.9999 58.2399 51.9999 46.8C51.9999 35.36 42.7701 26 31.2 26Z" fill="#CE9912"/>
<path d="M39.13 10.4C39.13 10.4 39.0001 10.4 39.13 10.4H23.4001C22.8801 10.4 22.36 10.14 22.2301 9.62004C22.1001 9.10009 22.1001 8.57999 22.4901 8.18999L30.2901 0.389992C30.8101 -0.129957 31.5901 -0.129957 32.1102 0.389992L39.7802 8.06004C40.1702 8.32009 40.3002 8.71009 40.3002 9.10009C40.4301 9.87994 39.7801 10.4 39.13 10.4ZM26.65 7.79999H36.01L31.2001 3.11999L26.65 7.79999Z" fill="#CE9912"/>
<path d="M28.7301 20.7999C28.7301 20.7999 28.6 20.7999 28.7301 20.7999H20.9301C20.4102 20.7999 20.0202 20.5399 19.7601 20.0199L14.5602 9.61989C14.3001 9.22989 14.4302 8.70994 14.5602 8.31994C14.8202 8.05989 15.2102 7.79999 15.6002 7.79999H23.4002C23.9202 7.79999 24.3102 8.06004 24.5702 8.57999L29.6402 18.72C29.7702 18.98 29.9003 19.2399 29.9003 19.5C30.0301 20.28 29.38 20.7999 28.7301 20.7999ZM21.7101 18.2H26.6502L22.7502 10.4H17.8101L21.7101 18.2Z" fill="#CE9912"/>
<path d="M41.6001 20.7999H33.8001C33.4101 20.7999 32.8901 20.5399 32.6301 20.1499C32.37 19.7599 32.37 19.2399 32.6301 18.8499L37.83 8.44989C38.0901 8.05989 38.61 7.79984 39 7.79984H46.8C47.19 7.79984 47.71 8.05989 47.97 8.44989C48.2301 8.83989 48.2301 9.35984 47.97 9.74984L42.7701 20.1499C42.64 20.54 42.12 20.7999 41.6001 20.7999ZM36.01 18.2H40.95L44.85 10.4H39.91L36.01 18.2Z" fill="#CE9912"/>
<path d="M33.8001 20.7999H28.6002C28.0802 20.7999 27.6902 20.5399 27.4302 20.0199L22.2301 9.62004C21.97 9.23004 22.1001 8.71009 22.2301 8.32009C22.6201 8.06004 23.0101 7.80014 23.4001 7.80014H39.0001C39.3901 7.80014 39.91 8.06019 40.1701 8.45019C40.4301 8.84019 40.4301 9.36014 40.1701 9.75014L34.9701 20.1502C34.84 20.54 34.3201 20.7999 33.8001 20.7999ZM29.5101 18.2H33.1501L37.0501 10.4H25.6101L29.5101 18.2Z" fill="#CE9912"/>
<path d="M23.4 10.4001H15.6C15.0801 10.4001 14.6901 10.14 14.43 9.75C14.17 9.36 14.17 8.84005 14.43 8.45005L19.63 0.650051C20.02 0.260051 20.41 0 20.8 0H31.2C31.72 0 32.2401 0.260051 32.37 0.78C32.6301 1.29995 32.5 1.82005 32.11 2.21005L24.31 10.0101C24.18 10.27 23.79 10.4001 23.4 10.4001ZM18.07 7.8H22.8799L28.0799 2.60005H21.45L18.07 7.8Z" fill="#CE9912"/>
<path d="M46.8001 10.4001H39.0001C38.6101 10.4001 38.3501 10.2701 38.0902 10.0101L30.2902 2.21005C29.9002 1.82005 29.9002 1.3001 30.0301 0.78C30.2902 0.260051 30.6802 0 31.2001 0H41.6002C41.9902 0 42.3802 0.260051 42.6402 0.519949L47.8402 8.31995C48.1002 8.70995 48.1002 9.2299 47.8402 9.6199C47.5801 10.0099 47.3201 10.4001 46.8001 10.4001ZM39.6502 7.8H44.4601L40.9501 2.60005H34.3201L39.6502 7.8Z" fill="#CE9912"/>
</svg>
