<svg width="227" height="297" viewBox="0 0 227 297" fill="none" xmlns="http://www.w3.org/2000/svg">
<path d="M192.333 68.35C184.801 62.432 176.394 57.478 167.367 53.521V31.46C167.367 14.113 153.255 0 135.908 0H90.463C73.116 0 59.004 14.113 59.004 31.46V53.521C49.977 57.478 41.57 62.432 34.038 68.35C12.087 85.596 0 108.742 0 133.525C0 158.308 12.088 181.454 34.038 198.7C41.575 204.622 49.989 209.579 59.023 213.537C59.019 213.66 59.004 213.781 59.004 213.905V220.06C59.004 231.568 65.218 241.647 74.464 247.132V272.675C74.464 278.158 78.91 282.604 84.393 282.604C89.876 282.604 94.322 278.158 94.322 272.675V251.52H103.258V287.072C103.258 292.555 107.704 297.001 113.187 297.001C118.67 297.001 123.116 292.555 123.116 287.072V251.52H132.052V272.675C132.052 278.158 136.498 282.604 141.981 282.604C147.464 282.604 151.91 278.158 151.91 272.675V247.132C161.156 241.647 167.37 231.568 167.37 220.06V213.905C167.37 213.781 167.356 213.66 167.351 213.537C176.385 209.579 184.799 204.621 192.336 198.7C214.287 181.454 226.374 158.308 226.374 133.525C226.374 108.742 214.283 85.596 192.333 68.35ZM147.509 133.525C147.509 175.485 129.419 204.727 113.185 204.727C96.951 204.727 78.861 175.485 78.861 133.525C78.861 91.565 96.951 62.323 113.185 62.323C129.419 62.323 147.509 91.565 147.509 133.525ZM78.861 31.46C78.861 25.062 84.066 19.857 90.463 19.857H135.908C142.305 19.857 147.51 25.062 147.51 31.46V46.721C136.546 43.934 125.003 42.466 113.186 42.466C101.369 42.466 89.826 43.935 78.862 46.721V31.46H78.861ZM19.856 133.525C19.856 104.683 42.45 79.792 74.844 68.612C65.012 85.011 59.003 107.871 59.003 133.525C59.003 159.179 65.012 182.039 74.844 198.438C42.45 187.258 19.856 162.367 19.856 133.525ZM135.907 231.662H90.462C84.157 231.662 79.02 226.603 78.874 220.332C89.834 223.116 101.372 224.584 113.185 224.584C124.998 224.584 136.536 223.117 147.496 220.332C147.349 226.603 142.213 231.662 135.907 231.662ZM151.525 198.438C161.357 182.039 167.366 159.179 167.366 133.525C167.366 107.871 161.357 85.011 151.525 68.612C183.919 79.792 206.513 104.684 206.513 133.525C206.513 162.366 183.92 187.258 151.525 198.438Z" fill="black"/>
<path d="M83.3989 132.93C83.3989 149.354 96.7609 162.716 113.185 162.716C129.609 162.716 142.971 149.354 142.971 132.93C142.971 116.506 129.609 103.144 113.185 103.144C96.7609 103.144 83.3989 116.506 83.3989 132.93ZM113.185 123.001C118.659 123.001 123.114 127.455 123.114 132.93C123.114 138.404 118.66 142.859 113.185 142.859C107.71 142.859 103.256 138.405 103.256 132.93C103.256 127.456 107.711 123.001 113.185 123.001Z" fill="black"/>
</svg>
