<svg width="234" height="314" viewBox="0 0 234 314" fill="none" xmlns="http://www.w3.org/2000/svg">
<path d="M233.224 141.649L217.893 120.672C216.93 119.325 216.866 117.465 217.828 116.118L232.839 94.9486C234.186 93.0241 233.545 90.3299 231.492 89.2393L208.591 76.9869C207.116 76.2171 206.282 74.5493 206.602 72.8814L210.9 47.2861C211.285 44.9767 209.553 42.7956 207.18 42.7315L181.264 41.641C179.596 41.5768 178.12 40.4221 177.671 38.8184L170.487 13.8004C169.845 11.5552 167.343 10.3364 165.162 11.2986L141.299 21.5624C139.759 22.2039 137.963 21.819 136.809 20.6002L119.488 1.29141C117.885 -0.440608 115.19 -0.440608 113.587 1.35556L96.5232 20.9209C95.4327 22.2039 93.6365 22.5888 92.0969 21.9473L68.1053 12.0684C65.9243 11.1703 63.4866 12.3891 62.8451 14.6343L55.9812 39.6524C55.5322 41.2561 54.1209 42.4108 52.453 42.5391L26.5369 44.0145C24.1634 44.1428 22.4956 46.3238 22.8804 48.6332L27.5633 74.1644C27.884 75.8323 27.0501 77.5001 25.6388 78.2699L2.93019 90.8431C0.877427 91.9977 0.300088 94.692 1.64721 96.5523L16.9788 117.529C17.941 118.876 18.0051 120.736 17.0429 122.083L2.0321 143.253C0.68498 145.177 1.32647 147.871 3.37923 148.962L26.2803 161.214C27.7558 161.984 28.5897 163.652 28.2689 165.32L23.971 190.915C23.5861 193.224 25.3181 195.406 27.6916 195.47L53.6077 196.56C55.2756 196.624 56.751 197.779 57.2 199.383L64.4488 224.337C65.0903 226.582 67.5921 227.801 69.7732 226.838L93.6365 216.575C95.1761 215.933 96.9722 216.318 98.1269 217.537L115.447 236.846C117.051 238.578 119.745 238.578 121.349 236.781L138.412 217.216C139.503 215.933 141.299 215.548 142.839 216.19L166.83 226.069C169.011 226.967 171.449 225.748 172.09 223.503L178.954 198.485C179.403 196.881 180.815 195.726 182.483 195.598L208.399 194.123C210.772 193.994 212.44 191.813 212.055 189.504L207.372 163.973C207.051 162.305 207.885 160.637 209.297 159.867L232.005 147.294C234.058 146.268 234.635 143.573 233.224 141.649ZM117.5 189.568C78.6899 189.568 47.0645 157.943 47.0645 119.133C47.0645 80.3227 78.6899 48.6973 117.5 48.6973C156.31 48.6973 187.935 80.3227 187.935 119.133C187.935 158.007 156.31 189.568 117.5 189.568Z" fill="black"/>
<path d="M180.943 235.114C177.222 238.898 172.026 241.144 166.445 241.144C164.457 241.144 162.468 240.823 160.608 240.31L144.057 235.306L131.292 246.981C130.843 247.366 130.458 247.751 130.009 248.072L150.537 311.707C151.242 313.952 154.129 314.466 155.604 312.605L170.551 293.425C171.257 292.463 172.54 292.078 173.63 292.398L196.916 299.198C199.161 299.84 201.214 297.723 200.508 295.542L180.943 235.114Z" fill="black"/>
<path d="M91.0064 235.306L74.456 240.31C72.5315 240.887 70.6071 241.144 68.6185 241.144C63.0375 241.144 57.9056 238.898 54.1209 235.114L34.5555 295.606C33.8498 297.851 35.9026 299.904 38.1478 299.262L61.4338 292.463C62.5885 292.142 63.8073 292.527 64.5129 293.489L79.4596 312.669C80.8709 314.53 83.8217 314.017 84.5274 311.771L105.055 248.136C104.606 247.815 104.157 247.43 103.772 247.045L91.0064 235.306Z" fill="black"/>
<circle cx="119.326" cy="115.147" r="102.959" fill="black"/>
<path d="M159.53 104.434L132.972 102.51L122.965 77.8767C121.105 73.258 114.497 73.258 112.637 77.8767L102.63 102.51L76.0723 104.434C71.0687 104.819 69.0801 111.042 72.8649 114.249L93.2001 131.441L86.8493 157.293C85.6305 162.168 90.9548 166.017 95.1887 163.387L117.769 149.338L140.349 163.387C144.583 166.017 149.908 162.168 148.689 157.293L142.338 131.441L162.673 114.249C166.522 111.042 164.533 104.819 159.53 104.434Z" fill="white"/>
</svg>
