<svg width="43" height="72" viewBox="0 0 43 72" fill="none" xmlns="http://www.w3.org/2000/svg">
<path d="M15.4085 1.79166C15.4085 1.55273 15.5279 1.43333 15.5279 1.1944H4.53894L11.9444 32.8471C12.5417 32.4888 13.1388 32.1305 13.7361 31.8915L8.12237 1.79166H15.4085Z" fill="white"/>
<path d="M28.6666 1.1944C28.786 1.43333 28.786 1.55273 28.786 1.79166H34.7582L29.1443 31.8917C29.7416 32.1306 30.3387 32.489 30.936 32.8473L38.461 1.1944H28.6666Z" fill="#DE9816"/>
<path d="M21.5 29.8611C24.6056 29.8611 27.4722 30.9361 29.9805 32.8473L35.8335 1.1944H7.16675L13.0195 32.8473C15.5278 31.0555 18.3945 29.8611 21.5 29.8611Z" fill="#FCC309"/>
<path d="M21.4999 70.4722C12.3026 70.4722 4.77771 61.3944 4.77771 50.1666C4.77771 38.9387 12.3028 29.861 21.4999 29.861C30.697 29.861 38.2221 38.9387 38.2221 50.1666C38.2221 61.3944 30.6972 70.4722 21.4999 70.4722Z" fill="#FFD949"/>
<path d="M21.5 29.8611C30.6973 29.8611 38.2222 38.9389 38.2222 50.1667C38.2222 61.3946 30.6972 70.4724 21.5 70.4724C32.7277 70.4724 41.8056 61.3946 41.8056 50.1667C41.8056 38.9389 32.7279 29.8611 21.5 29.8611Z" fill="#DE9816"/>
<path d="M4.77789 50.1667C4.77789 38.939 12.3029 29.8611 21.5001 29.8611C10.2724 29.8611 1.19446 39.0584 1.19446 50.1667C1.19446 61.2751 10.2722 70.4724 21.5001 70.4724C12.3029 70.4722 4.77789 61.3945 4.77789 50.1667Z" fill="white"/>
<path d="M21.4999 39.4167L23.8888 46.5833H31.0556L25.0834 51.3611L27.4721 58.5278L21.4999 54.9444L15.5277 58.5278L17.9166 51.3611L11.9445 46.5833H19.111L21.4999 39.4167Z" fill="#EFEFEF"/>
<path d="M21.5001 29.8611C23.65 29.8611 25.6806 30.2194 27.5918 30.8167L33.3251 1.1944H9.55554L15.4083 30.8166C17.3195 30.2194 19.3501 29.8611 21.5001 29.8611Z" fill="#FFD949"/>
<path d="M21.5 71.6667C9.67501 71.6667 0 62.1111 0 50.1667C0 38.2223 9.67501 28.6667 21.5 28.6667C33.325 28.6667 43 38.3417 43 50.1667C43 61.9917 33.325 71.6667 21.5 71.6667ZM21.5 31.0555C10.9889 31.0555 2.3889 39.6555 2.3889 50.1666C2.3889 60.6776 10.9889 69.2778 21.5 69.2778C32.0111 69.2778 40.6111 60.6778 40.6111 50.1667C40.6111 39.6557 32.0112 31.0555 21.5 31.0555Z" fill="#CE9912"/>
<path d="M24.1278 66.65C23.5306 66.65 23.0529 66.2917 22.9335 65.6944C22.8141 65.0971 23.2918 64.3805 23.8891 64.2611C25.5613 64.0221 27.114 63.425 28.5473 62.5888C29.1446 62.2305 29.8612 62.4694 30.2196 63.0666C30.5779 63.6638 30.339 64.3805 29.7418 64.7388C28.0696 65.6944 26.1586 66.4111 24.2474 66.65C24.2472 66.65 24.2472 66.65 24.1278 66.65ZM18.7528 66.65C18.6334 66.65 18.6334 66.65 18.5138 66.65C16.6027 66.2917 14.811 65.575 13.0194 64.6194C12.4221 64.2611 12.3027 63.5444 12.5416 62.9472C12.9 62.3499 13.6166 62.2305 14.2139 62.4694C15.6472 63.3055 17.2001 63.9028 18.8722 64.1417C19.4694 64.2611 19.9472 64.8583 19.8278 65.575C19.8278 66.2917 19.35 66.65 18.7528 66.65ZM33.325 61.3945C33.0861 61.3945 32.7277 61.2751 32.6083 61.1555C32.1306 60.6778 32.0111 59.9611 32.4889 59.4833C33.5639 58.1694 34.4001 56.736 34.9972 55.1833C35.2362 54.5861 35.9528 54.2277 36.55 54.4667C37.1472 54.7056 37.5055 55.4223 37.2666 56.0194C36.55 57.811 35.5944 59.4833 34.4 61.036C34.0417 61.2751 33.6833 61.3945 33.325 61.3945ZM9.55562 61.3945C9.19729 61.3945 8.83897 61.2751 8.60003 60.9167C7.28611 59.364 6.33052 57.6918 5.7334 55.9001C5.49447 55.3029 5.8528 54.5862 6.45006 54.3474C7.04732 54.1085 7.76398 54.4668 8.00277 55.0641C8.60003 56.6168 9.43608 58.0502 10.5111 59.364C10.9888 59.8417 10.8694 60.6779 10.3917 61.0363C10.1529 61.2751 9.79456 61.3945 9.55562 61.3945ZM37.0278 51.4805C36.3112 51.4805 35.8334 51.0028 35.8334 50.2861C35.8334 48.6139 35.5945 46.9416 34.9974 45.3889C34.7585 44.7917 35.1168 44.075 35.714 43.8362C36.3113 43.5973 37.028 43.9556 37.2668 44.5529C37.9834 46.3445 38.2223 48.2557 38.2223 50.2863C38.2222 50.8834 37.7445 51.4805 37.0278 51.4805ZM5.97233 51.3611C5.25568 51.3611 4.77795 50.8834 4.77795 50.1667C4.77795 48.2555 5.13628 46.2251 5.73354 44.4333C5.97248 43.8361 6.68913 43.4777 7.28625 43.7167C7.88352 43.9556 8.24184 44.6723 8.00291 45.2694C7.40565 46.8221 7.16686 48.4943 7.16686 50.1666C7.16672 50.8834 6.68899 51.3611 5.97233 51.3611ZM33.4445 41.4472C33.0862 41.4472 32.7279 41.3278 32.4889 40.9694C31.414 39.6555 30.1 38.5805 28.6667 37.7445C28.0695 37.3862 27.9501 36.6695 28.189 36.0722C28.5473 35.475 29.264 35.3556 29.8612 35.5945C31.5335 36.5501 33.0862 37.864 34.2807 39.2973C34.7585 39.7751 34.6391 40.6112 34.1613 40.9696C33.9223 41.3278 33.6833 41.4472 33.4445 41.4472ZM9.67502 41.4472C9.43608 41.4472 9.07775 41.3278 8.95836 41.2082C8.48064 40.7305 8.3611 40.0138 8.83896 39.536C10.1529 37.9833 11.5862 36.7887 13.2584 35.8332C13.8557 35.4748 14.5724 35.7138 14.9307 36.3109C15.289 36.9081 15.0501 37.6248 14.453 37.9831C13.0197 38.8192 11.7057 39.8943 10.6307 41.2081C10.2723 41.2084 9.91395 41.4472 9.67502 41.4472ZM24.2472 36.0722C24.1278 36.0722 24.1278 36.0722 24.0083 36.0722C22.3361 35.8333 20.6638 35.8333 18.9917 36.0722C18.3944 36.1916 17.6778 35.7139 17.5584 35.1166C17.439 34.5194 17.9167 33.8027 18.514 33.6833C20.4252 33.325 22.4556 33.325 24.3668 33.6833C24.964 33.8027 25.4418 34.4 25.3224 35.1166C25.3222 35.7139 24.7251 36.0722 24.2472 36.0722Z" fill="#CE9912"/>
<path d="M27.4723 59.7222C27.2333 59.7222 26.9945 59.7222 26.875 59.6028L21.5001 56.3778L16.1252 59.6028C15.6474 59.8417 15.1696 59.8417 14.8112 59.4834C14.4529 59.1251 14.214 58.6473 14.4529 58.1695L16.6029 51.839L11.2279 47.539C10.8696 47.1807 10.6307 46.703 10.8696 46.2251C10.989 45.7474 11.4669 45.389 11.9446 45.389H18.2751L20.4251 39.0585C20.5445 38.5808 21.0224 38.2225 21.5001 38.2225C21.9778 38.2225 22.4557 38.5808 22.5751 39.0585L24.725 45.389H31.0556C31.5333 45.389 32.0111 45.7474 32.1305 46.2251C32.2499 46.7028 32.1305 47.1807 31.7722 47.539L26.3971 51.839L28.5471 58.1695C28.6665 58.6472 28.5471 59.1251 28.1888 59.4834C27.9501 59.7222 27.7112 59.7222 27.4723 59.7222ZM21.5001 53.75C21.739 53.75 21.9778 53.75 22.0973 53.8694L25.3223 55.7806L24.0084 51.7194C23.889 51.2417 24.0084 50.7638 24.3667 50.4055L27.7112 47.7777H23.889C23.4113 47.7777 22.9334 47.4193 22.814 46.9416L21.5001 43.2388L20.1862 47.061C20.0668 47.5387 19.5889 47.7777 19.1112 47.7777H15.4084L18.7528 50.4055C19.1112 50.7638 19.3501 51.2416 19.1112 51.7194L17.7973 55.7806L21.0222 53.8694C21.0224 53.8694 21.2613 53.75 21.5001 53.75Z" fill="#CE9912"/>
<path d="M10.9889 34.0416C10.8695 34.0416 10.6306 34.0416 10.5112 33.9223C10.1529 33.8029 9.91396 33.4445 9.79456 33.0862L6.09174 17.0807C5.97234 16.4834 6.33067 15.7667 6.92779 15.6473C7.52505 15.528 8.24171 15.8863 8.36111 16.4834L11.825 31.0556C17.9167 27.9501 25.2028 27.9501 31.2944 31.0556L37.9833 2.3889H5.13601L6.21099 6.92778C6.33039 7.52504 5.85266 8.2417 5.2554 8.3611C4.65814 8.48049 3.94148 8.12216 3.82209 7.52504L2.38892 1.55271C2.38892 1.19438 2.38892 0.836053 2.62785 0.477724C2.86678 0.238933 3.22511 0 3.58344 0H39.4167C39.7751 0 40.1334 0.119395 40.3723 0.477724C40.6113 0.836053 40.6113 1.19438 40.6113 1.55271L33.2057 33.2055C33.0864 33.5638 32.8474 33.9221 32.4891 34.0415C32.1308 34.1609 31.7724 34.1609 31.4141 33.9221C25.4419 30.2193 17.5585 30.2193 11.5864 33.9221C11.3473 34.0416 11.2279 34.0416 10.9889 34.0416Z" fill="#CE9912"/>
<path d="M7.16672 11.9444C7.16672 11.2277 6.68899 10.75 5.97233 10.75C5.25568 10.75 4.77795 11.3473 4.77795 11.9444C4.77795 12.5416 5.25568 13.1388 5.97233 13.1388C6.68899 13.1389 7.16672 12.661 7.16672 11.9444Z" fill="#CE9912"/>
<path d="M15.4084 32.0111C15.1695 32.0111 14.9307 32.0111 14.8111 31.8917C14.5722 31.7723 14.3334 31.414 14.2139 31.0556L8.36108 1.43331C8.36108 1.07499 8.36108 0.716657 8.60002 0.477724C8.83895 0.238933 9.19728 0 9.55561 0H33.3251C33.6834 0 34.0418 0.119395 34.2807 0.477724C34.5196 0.716657 34.639 1.07499 34.5196 1.43331L28.6668 31.0555C28.5475 31.4138 28.4279 31.6527 28.0696 31.8915C27.8306 32.0109 27.4723 32.1305 27.114 32.0109C23.4112 30.8166 19.3502 30.8166 15.7667 32.0109C15.6472 32.0111 15.5278 32.0111 15.4084 32.0111ZM10.9889 2.38891L16.3639 29.2638C19.7083 28.4278 23.2916 28.4278 26.6361 29.2638L31.8917 2.38891H10.9889V2.38891Z" fill="#CE9912"/>
</svg>
