<svg width="85" height="80" viewBox="0 0 85 80" fill="none" xmlns="http://www.w3.org/2000/svg">
<path d="M78.7174 34.2895L84.9897 24.8909C84.9897 24.8909 85.7836 1.52669 70.824 0.318115H42.5052H42.4922H14.1735C-0.785924 1.52669 0.00780774 24.8907 0.00780774 24.8907L6.30865 34.1993L0 51.2173L7.08162 79.3079L77.9157 79.3181L85 51.2249L78.7174 34.2895Z" fill="#FBBD50"/>
<g opacity="0.2">
<path opacity="0.2" d="M0.0984964 24.9205C0.529251 18.3447 2.78602 4.46935 14.1735 3.53823H42.4922H42.5051H70.8238C82.2116 4.46951 84.4707 18.35 84.899 24.9231L84.9897 24.7882C84.9897 24.7882 85.7836 1.21917 70.824 0H42.5051H42.4922H14.1735C-0.785937 1.21917 0.00779373 24.7881 0.00779373 24.7881L0.0984964 24.9205Z" fill="white"/>
</g>
<path d="M85 51.3181L0 51.3104L6.30865 34.3181L78.7174 34.4081L85 51.3181Z" fill="#CE9912"/>
<path d="M78.7265 34.3181L6.3022 34.2223L0 24.3181H85L78.7265 34.3181Z" fill="#CE9912"/>
<path d="M44 65.3166C44 66.4214 43.3275 67.3181 42.5011 67.3181C41.6725 67.3181 41 66.4214 41 65.3166C41 64.2116 41.6725 63.3181 42.5011 63.3181C43.3275 63.3181 44 64.2118 44 65.3166Z" fill="#3B3B3B"/>
<path d="M28.2825 46.3598C26.2462 46.3598 24.2825 45.9111 22.8922 45.1304C21.8312 44.5338 21.2009 43.7944 21.2009 43.1512C21.2009 41.8438 23.961 39.9425 28.2825 39.9425C30.3187 39.9425 32.2851 40.3912 33.6754 41.1747C34.7337 41.7685 35.3667 42.508 35.3667 43.1512C35.3667 44.4611 32.6065 46.3598 28.2825 46.3598Z" fill="#FFF200"/>
<path d="M42.4482 46.3598C40.4119 46.3598 38.4481 45.9111 37.0552 45.1304C35.9968 44.5338 35.3666 43.7944 35.3666 43.1512C35.3666 41.8438 38.124 39.9425 42.4482 39.9425C44.4844 39.9425 46.4481 40.3912 47.841 41.1747C48.8994 41.7685 49.5297 42.508 49.5297 43.1512C49.5297 44.4611 46.7725 46.3598 42.4482 46.3598Z" fill="#FFF200"/>
<path d="M56.6141 46.3598C54.5777 46.3598 52.6115 45.9111 51.2212 45.1304C50.1629 44.5338 49.5298 43.7944 49.5298 43.1512C49.5298 41.8438 52.2899 39.9425 56.6141 39.9425C58.6504 39.9425 60.6139 40.3912 62.0044 41.1747C63.0627 41.7685 63.6957 42.508 63.6957 43.1512C63.6957 44.4611 60.9359 46.3598 56.6141 46.3598Z" fill="#FFF200"/>
<path d="M35.3666 41.3795C33.3303 41.3795 31.3641 40.9333 29.9736 40.15C28.9153 39.5533 28.2823 38.8167 28.2823 38.1734C28.2823 36.8635 31.0423 34.9619 35.3666 34.9619C37.4003 34.9619 39.3665 35.4132 40.757 36.194C41.8153 36.7881 42.4482 37.53 42.4482 38.1734C42.4482 39.4806 39.6881 41.3795 35.3666 41.3795Z" fill="#FFF200"/>
<path d="M49.5297 41.3795C47.496 41.3795 45.5298 40.9333 44.1395 40.15C43.0812 39.5533 42.4482 38.8167 42.4482 38.1734C42.4482 36.8635 45.2084 34.9619 49.5297 34.9619C51.566 34.9619 53.5322 35.4132 54.9227 36.194C55.981 36.7881 56.614 37.53 56.614 38.1734C56.614 39.4806 53.8542 41.3795 49.5297 41.3795Z" fill="#FFF200"/>
<path d="M42.4482 36.4015C40.4119 36.4015 38.4481 35.9526 37.0552 35.1694C35.9968 34.5755 35.3666 33.8361 35.3666 33.1928C35.3666 31.8855 38.124 29.9842 42.4482 29.9842C44.4844 29.9842 46.4481 30.4329 47.841 31.2163C48.8994 31.8104 49.5297 32.5496 49.5297 33.1928C49.5297 34.5001 46.7725 36.4015 42.4482 36.4015Z" fill="#FFF200"/>
<path d="M15.2217 51.3533H27.2682C27.9581 50.8345 28.3342 50.2717 28.3342 49.7893C28.3342 49.1459 27.7013 48.4091 26.6429 47.8126C25.2525 47.0293 23.2862 46.5831 21.2501 46.5831C16.9284 46.5831 14.1685 48.482 14.1685 49.7894C14.1685 50.2924 14.5524 50.8499 15.2217 51.3533Z" fill="#FFF200"/>
<path d="M29.3874 51.3533H41.4339C42.1238 50.8345 42.4975 50.2717 42.4975 49.7893C42.4975 49.1459 41.8672 48.4091 40.8088 47.8126C39.4184 47.0293 37.4522 46.5831 35.4158 46.5831C31.0917 46.5831 28.3342 48.482 28.3342 49.7894C28.3344 50.2924 28.7183 50.8499 29.3874 51.3533Z" fill="#FFF200"/>
<path d="M50 51.3181H34V67.3181H50V51.3181Z" fill="#CCD1D9"/>
<path d="M43.5505 51.3533H55.597C56.2871 50.8345 56.6632 50.2717 56.6632 49.7893C56.6632 49.1459 56.0328 48.4091 54.9746 47.8126C53.5815 47.0293 51.6179 46.5831 49.5816 46.5831C45.2576 46.5831 42.4973 48.4821 42.4973 49.7895C42.4973 50.2925 42.8839 50.85 43.5505 51.3533Z" fill="#FFF200"/>
<path d="M57.7164 51.3533H69.7629C70.453 50.8345 70.8291 50.2717 70.8291 49.7893C70.8291 49.1459 70.1962 48.4091 69.1378 47.8126C67.7474 47.0293 65.7812 46.5831 63.7475 46.5831C59.4235 46.5831 56.6632 48.4821 56.6632 49.7895C56.6632 50.2925 57.0469 50.85 57.7164 51.3533Z" fill="#FFF200"/>
<path d="M72.5452 51.3181C72.8369 50.8309 73 50.3075 73 49.7636C73 47.2574 69.6171 45.1847 65.2308 44.8598C65.5802 44.3337 65.7722 43.7615 65.7722 43.1659C65.7722 40.7706 62.6866 38.7751 58.5918 38.3163C58.5918 38.2827 58.5945 38.2492 58.5945 38.2184C58.5945 35.8206 55.5115 33.8251 51.414 33.3662C51.4167 33.3352 51.4192 33.3017 51.4192 33.2682C51.4192 30.5352 47.4031 28.3181 42.4488 28.3181C37.4944 28.3181 33.4785 30.5354 33.4785 33.2682C33.4785 33.3017 33.4812 33.3352 33.4837 33.3662C29.3861 33.8251 26.303 35.8206 26.303 38.2184C26.303 38.2494 26.3057 38.2827 26.3057 38.3163C22.2109 38.7751 19.1253 40.7706 19.1253 43.1659C19.1253 43.7639 19.3171 44.3389 19.672 44.87C15.3327 45.2156 12 47.2754 12 49.7636C12 50.3075 12.1629 50.8309 12.4546 51.3181H72.5452ZM39.3289 50.4751C38.2171 50.9392 36.7952 51.1943 35.3234 51.1943C33.8516 51.1943 32.4297 50.939 31.3204 50.4751C30.7054 50.2172 30.3216 49.9543 30.1089 49.7634C30.3218 49.5778 30.7054 49.3122 31.3204 49.0571C32.4297 48.5928 33.8516 48.335 35.3234 48.335C36.7953 48.335 38.2171 48.593 39.3289 49.0571C39.9412 49.3122 40.325 49.5778 40.5406 49.7634C40.325 49.9543 39.9412 50.2173 39.3289 50.4751ZM38.4432 43.8749C37.8308 43.6196 37.4471 43.3541 37.2315 43.1659C37.2815 43.122 37.3419 43.0756 37.4102 43.0242C38.9793 42.8127 40.3854 42.3744 41.5078 41.7711C41.818 41.7504 42.1332 41.7375 42.4487 41.7375C42.7641 41.7375 43.0795 41.7504 43.3869 41.7711C44.5119 42.3744 45.918 42.8127 47.4869 43.0242C47.5553 43.0758 47.6159 43.1222 47.6657 43.1659C47.4503 43.3541 47.0663 43.6196 46.454 43.8749C45.3424 44.339 43.9203 44.5968 42.4487 44.5968C40.9767 44.5968 39.5549 44.3389 38.4432 43.8749ZM53.6792 50.4751C52.5702 50.9392 51.1482 51.1943 49.6764 51.1943C48.2047 51.1943 46.7829 50.939 45.671 50.4751C45.0584 50.2172 44.6748 49.9543 44.4592 49.7634C44.6748 49.5778 45.0586 49.3122 45.671 49.0571C46.7827 48.5928 48.2047 48.335 49.6764 48.335C51.1482 48.335 52.5702 48.593 53.6792 49.0571C54.2943 49.3122 54.678 49.5778 54.8909 49.7634C54.678 49.9543 54.2943 50.2173 53.6792 50.4751ZM68.0324 49.0571C68.6474 49.3122 69.0314 49.5778 69.2441 49.7634C69.0312 49.9541 68.6474 50.2172 68.0324 50.4751C66.9234 50.9392 65.4987 51.1943 64.0296 51.1943C62.5579 51.1943 61.1361 50.939 60.0242 50.4751C59.4091 50.2172 59.0254 49.9543 58.8124 49.7634C59.0255 49.5778 59.4091 49.3122 60.0242 49.0571C61.1359 48.5928 62.5579 48.335 64.0296 48.335C65.4987 48.335 66.9234 48.593 68.0324 49.0571ZM56.8017 41.7374C58.2735 41.7374 59.6954 41.9928 60.8046 42.4568C61.4195 42.7147 61.8035 42.9775 62.0162 43.1657C61.8033 43.354 61.4195 43.6195 60.8046 43.8747C59.6954 44.3389 58.2735 44.5966 56.8017 44.5966C55.3299 44.5966 53.9081 44.3387 52.7962 43.8747C52.1812 43.6195 51.7974 43.354 51.5847 43.1657C51.6345 43.1218 51.6949 43.0754 51.7634 43.0241C53.3325 42.8126 54.7386 42.3742 55.861 41.7709C56.171 41.7502 56.4837 41.7374 56.8017 41.7374ZM49.6237 36.7873C51.0955 36.7873 52.5175 37.0426 53.6294 37.5066C54.2443 37.7645 54.6282 38.0273 54.841 38.2182C54.791 38.2595 54.7305 38.3083 54.6622 38.36C53.0931 38.5714 51.6868 39.0122 50.5645 39.6104C50.2544 39.6337 49.9417 39.6466 49.6236 39.6466C49.3083 39.6466 48.9956 39.6337 48.6854 39.6104C47.5603 39.0122 46.1544 38.5714 44.5853 38.36C44.517 38.3085 44.4591 38.2595 44.4091 38.2182C44.4591 38.1718 44.517 38.1254 44.5853 38.0737C46.1544 37.8624 47.5605 37.424 48.6854 36.8233C48.9931 36.8002 49.3085 36.7873 49.6237 36.7873ZM38.4432 32.559C39.5549 32.0949 40.9769 31.8398 42.4487 31.8398C43.9204 31.8398 45.3424 32.095 46.454 32.559C47.0665 32.8143 47.4503 33.0798 47.6657 33.268C47.6157 33.3119 47.5553 33.3608 47.4869 33.4125C45.918 33.624 44.5117 34.0622 43.3869 34.6604C43.0795 34.6861 42.7641 34.6964 42.4487 34.6964C42.1332 34.6964 41.8178 34.6861 41.5078 34.6604C40.3856 34.0622 38.9794 33.624 37.4102 33.4125C37.3419 33.3609 37.2815 33.3119 37.2315 33.268C37.4471 33.0799 37.8307 32.8143 38.4432 32.559ZM31.2679 37.5066C32.3797 37.0424 33.8016 36.7873 35.2734 36.7873C35.5888 36.7873 35.9016 36.8002 36.2116 36.8235C37.3367 37.4243 38.7428 37.8625 40.3117 38.0739C40.38 38.1254 40.4379 38.172 40.4878 38.2184C40.4378 38.2596 40.38 38.3085 40.3117 38.3602C38.7426 38.5715 37.334 39.0124 36.2116 39.6106C35.9016 39.6339 35.5887 39.6467 35.2734 39.6467C34.9553 39.6467 34.6426 39.6339 34.3325 39.6106C33.2103 39.0124 31.8042 38.5715 30.235 38.3602C30.1666 38.3087 30.1062 38.2596 30.0562 38.2184C30.2691 38.0273 30.6529 37.7645 31.2679 37.5066ZM24.0927 42.4569C25.2017 41.9928 26.6237 41.7375 28.0956 41.7375C28.4136 41.7375 28.7265 41.7504 29.0365 41.7711C30.1587 42.3744 31.5648 42.8127 33.1341 43.0242C33.2024 43.0758 33.2628 43.1222 33.3128 43.1659C33.0974 43.3541 32.7163 43.6196 32.1011 43.8749C30.9894 44.339 29.5674 44.5968 28.0956 44.5968C26.6237 44.5968 25.2019 44.3389 24.0927 43.8749C23.4776 43.6196 23.0939 43.3541 22.881 43.1659C23.0939 42.9777 23.4776 42.7147 24.0927 42.4569ZM16.9673 49.0571C18.0765 48.5928 19.5009 48.335 20.9702 48.335C22.4421 48.335 23.8639 48.593 24.9757 49.0571C25.5907 49.3122 25.9745 49.5778 26.1872 49.7634C25.9743 49.9541 25.5907 50.2172 24.9757 50.4751C23.8639 50.9392 22.442 51.1943 20.9702 51.1943C19.4984 51.1943 18.0765 50.939 16.9673 50.4751C16.3522 50.2172 15.9684 49.9543 15.7557 49.7634C15.9686 49.578 16.3522 49.3122 16.9673 49.0571Z" fill="#FFF200"/>
<path d="M44 61.3181H41V65.3181H44V61.3181Z" fill="#A5A3A3"/>
<path d="M45 58.8181C45 60.1997 43.8795 61.3181 42.5013 61.3181C41.1205 61.3181 40 60.1997 40 58.8181C40 57.4367 41.1205 56.3181 42.5013 56.3181C43.8794 56.318 45 57.4365 45 58.8181Z" fill="#434A54"/>
<path d="M52.9974 24.3181C52.9974 24.3181 53 24.3157 53 24.3135V17.9162C53 17.0351 52.2158 16.3181 51.2493 16.3181H33.7508C32.7844 16.3181 32 17.0351 32 17.9162V24.3135C32 24.3159 32 24.3181 32 24.3181H52.9974Z" fill="#CCD1D9"/>
<path d="M35.3665 24.7881V19.473H49.5296V24.7881H53.0703C53.0703 21.1669 53.073 17.7013 53.073 17.7013C53.073 16.726 52.2794 15.9323 51.3014 15.9323H33.5948C32.6169 15.9323 31.8231 16.726 31.8231 17.7013C31.8231 17.7013 31.8231 21.1669 31.8231 24.7881H35.3665Z" fill="#A5A3A3"/>
<path d="M9.16199 51.3455L15.4318 79.6849H19.058L12.7911 51.3455H9.16199Z" fill="#A5A3A3"/>
<path d="M72.1234 51.3506L65.8486 79.6927H69.4751L75.7498 51.3506H72.1234Z" fill="#A5A3A3"/>
<path d="M49.5296 51.3506V67.2806H35.3665V51.3481H31.8231V69.0523C31.8231 70.0276 32.6169 70.8213 33.5948 70.8213H51.3014C52.2794 70.8213 53.073 70.0276 53.073 69.0523V51.3506H49.5296Z" fill="#A5A3A3"/>
<path d="M42.5 53.1147C39.5662 53.1147 37.1876 55.4932 37.1876 58.4271C37.1876 61.3608 39.5663 63.7395 42.5 63.7395C45.4313 63.7395 47.81 61.3608 47.81 58.4271C47.81 55.4932 45.4313 53.1147 42.5 53.1147ZM42.5 60.1963C41.5221 60.1963 40.7283 59.4026 40.7283 58.4273C40.7283 57.4518 41.5221 56.6556 42.5 56.6556C43.4753 56.6556 44.2691 57.4518 44.2691 58.4273C44.2691 59.4026 43.4753 60.1963 42.5 60.1963Z" fill="#A5A3A3"/>
<path opacity="0.1" d="M0 51.3181L1.29957 47.3181H83.6928L85 51.3181H0Z" fill="#3B3B3B"/>
</svg>
