<?xml version="1.0" encoding="UTF-8"?><!DOCTYPE svg PUBLIC "-//W3C//DTD SVG 1.1//EN" "http://www.w3.org/Graphics/SVG/1.1/DTD/svg11.dtd"><svg xmlns="http://www.w3.org/2000/svg" xmlns:xlink="http://www.w3.org/1999/xlink"><symbol id="bullets" viewBox="0 0 52 77"><path d="M12.601 75.717H3.618c-1.027 0-1.925-.77-1.925-1.797v-1.412c0-1.026.898-1.925 1.925-1.925h9.112c1.026 0 1.925.898 1.925 1.925v1.412c-.129 1.027-1.027 1.797-2.054 1.797zM8.623 6.802L8.11 1.283l-.514 5.519c-.513 4.876-.77 10.01-.77 15.015v7.7h2.567v-7.7c0-5.005-.257-10.139-.77-15.015z" fill="#FCC309"/><path d="M4.26 21.817v7.7h2.566v-7.7c0-5.134.257-10.139.77-15.015l.513-5.519-1.668 5.519C5.03 11.678 4.26 16.812 4.26 21.817z" fill="#fff"/><path d="M9.778 6.802L8.11 1.283l.513 5.519c.513 4.876.77 10.01.77 15.015v7.7h2.566v-7.7c0-5.005-.77-10.139-2.181-15.015z" fill="#FD9808"/><path d="M10.42 29.517H5.8L4.26 34.65v30.8l.641 3.978c0 .77.385 1.155.899 1.155h4.748c.385 0 .77-.513.898-1.155l.513-3.978v-30.8l-1.54-5.133z" fill="#FFDD09"/><path d="M4.901 69.428L4.26 65.45v-30.8l1.54-5.133H4.26L1.694 34.65v30.8l1.027 3.978c.128.77.77 1.155 1.411 1.155h1.54c-.385 0-.77-.385-.77-1.155z" fill="#fff"/><path d="M11.96 29.517h-1.54l1.54 5.133v30.8l-.642 3.978c0 .77-.385 1.155-.899 1.155h1.54c.642 0 1.284-.513 1.54-1.155l1.027-3.978v-30.8l-2.567-5.133z" fill="#FD9808"/><path d="M30.568 75.717h-9.112c-1.026 0-1.925-.899-1.925-1.925V72.38c0-1.027.899-1.925 1.925-1.925h9.112c1.027 0 1.925.898 1.925 1.925v1.412c0 1.155-.898 1.925-1.925 1.925zM26.59 13.218L26.076 7.7l-.513 5.518c-.513 4.877-.77 10.01-.77 15.015v7.7h2.567v-7.7c0-5.005-.257-10.138-.77-15.015z" fill="#FCC309"/><path d="M22.226 28.233v7.7h2.567v-7.7c0-5.133.257-10.138.77-15.015l.513-5.518-1.668 5.518c-1.412 4.877-2.182 10.01-2.182 15.015z" fill="#fff"/><path d="M27.744 13.218L26.076 7.7l.514 5.518c.513 4.877.77 10.01.77 15.015v7.7h2.566v-7.7c0-5.005-.77-10.138-2.181-15.015z" fill="#FD9808"/><path d="M28.386 35.933h-4.62l-1.54 5.134V65.45l.642 3.978c.128.642.513 1.155.898 1.155h4.749c.384 0 .77-.513.898-1.155l.513-3.978V41.067l-1.54-5.134z" fill="#FFDD09"/><path d="M22.868 69.428l-.642-3.978V41.067l1.54-5.134h-1.54l-2.567 5.134V65.45l1.027 3.978c.128.642.77 1.155 1.54 1.155h1.54c-.513 0-.898-.385-.898-1.155z" fill="#fff"/><path d="M29.926 35.933h-1.54l1.54 5.134V65.45l-.641 3.978c-.129.642-.514 1.155-.899 1.155h1.54c.642 0 1.284-.513 1.54-1.155l1.027-3.978V41.067l-2.567-5.134z" fill="#FD9808"/><path d="M48.534 75.717h-9.111c-1.027 0-1.925-.899-1.925-1.925V72.38c0-1.027.898-1.925 1.925-1.925h9.111c1.027 0 1.925.898 1.925 1.925v1.412c0 1.155-.898 1.925-1.925 1.925zM44.556 18.352l-.513-5.519-.514 5.519c-.513 4.876-.77 10.01-.77 15.015v7.7h2.567v-7.7c0-5.005-.257-10.139-.77-15.015z" fill="#FCC309"/><path d="M40.193 33.367v7.7h2.567v-7.7c0-5.134.256-10.139.77-15.015l.513-5.519-1.668 5.519c-1.412 4.876-2.182 10.01-2.182 15.015z" fill="#fff"/><path d="M45.711 18.352l-1.668-5.519.513 5.519c.513 4.876.77 10.01.77 15.015v7.7h2.567v-7.7c0-5.005-.77-10.139-2.182-15.015z" fill="#FD9808"/><path d="M46.353 41.067h-4.62l-1.54 5.133v19.25l.642 3.978c.128.642.513 1.155.898 1.155h4.748c.385 0 .77-.513.899-1.155l.513-3.978V46.2l-1.54-5.133z" fill="#FFDD09"/><path d="M40.834 69.428l-.641-3.978V46.2l1.54-5.133h-1.54L37.626 46.2v19.25l1.027 3.978c.128.642.77 1.155 1.54 1.155h1.54c-.514 0-.898-.385-.898-1.155z" fill="#fff"/><path d="M47.893 41.067h-1.54l1.54 5.133v19.25l-.642 3.978c-.128.642-.513 1.155-.898 1.155h1.54c.642 0 1.283-.513 1.54-1.155l1.026-3.978V46.2l-2.566-5.133z" fill="#FD9808"/><path d="M32.493 66.733H19.659c-.77 0-1.283-.513-1.283-1.283V39.783c0-.77.514-1.283 1.284-1.283h12.833c.77 0 1.283.513 1.283 1.283V65.45c0 .77-.513 1.283-1.283 1.283zm-11.55-2.566h10.266v-23.1H20.944v23.1z" fill="#CE9912"/><path d="M30.054 71.867h-7.828c-1.283 0-2.438-.899-2.695-2.182l-1.155-3.85c-.128-.385 0-.77.257-1.155.257-.257.642-.513 1.027-.513h12.833c.385 0 .77.128 1.026.513.257.385.257.77.257 1.155l-1.027 3.978c-.256 1.284-1.411 2.054-2.695 2.054zm-8.726-5.134l.641 2.439c0 .128.129.128.257.128h7.828c.129 0 .257-.128.257-.128l.642-2.439h-9.625z" fill="#CE9912"/><path d="M30.568 77h-9.112a3.177 3.177 0 01-3.208-3.208V72.38a3.177 3.177 0 013.208-3.209h9.112a3.177 3.177 0 013.208 3.209v1.412A3.177 3.177 0 0130.568 77zm-8.984-5.133c-.384 0-.641.256-.641.641v1.412c0 .385.256.642.641.642h9.112c.385 0 .642-.257.642-.642v-1.412c0-.385-.257-.641-.642-.641h-9.112zM32.493 41.067H19.659c-.384 0-.898-.257-1.154-.642a1.166 1.166 0 010-1.283l2.566-5.134c.257-.385.642-.77 1.155-.77h7.7c.514 0 .899.257 1.155.77l2.567 5.134c.256.385.128.898 0 1.283-.129.385-.77.642-1.155.642zM21.713 38.5h8.726l-1.283-2.567h-6.16L21.713 38.5z" fill="#CE9912"/><path d="M29.926 35.933h-7.7c-.77 0-1.283-.513-1.283-1.283v-7.7c0-.77.513-1.283 1.283-1.283h7.7c.77 0 1.283.513 1.283 1.283v7.7c0 .77-.513 1.283-1.283 1.283zm-6.417-2.566h5.134v-5.134h-5.134v5.134z" fill="#CE9912"/><path d="M29.926 28.233h-7.7c-.77 0-1.283-.513-1.283-1.283 0-5.262.77-10.395 2.31-15.4l1.54-5.518c.256-.513.77-.898 1.283-.898.513 0 1.027.385 1.283.898l1.54 5.518a52.709 52.709 0 012.31 15.4c0 .77-.513 1.283-1.283 1.283zm-6.417-2.566h5.134c-.128-4.492-.77-9.112-2.182-13.475l-.385-1.284-.385 1.412c-1.283 4.363-2.053 8.855-2.182 13.347zM14.526 66.733H1.693c-.77 0-1.283-.513-1.283-1.283v-30.8c0-.77.513-1.283 1.283-1.283h12.833c.77 0 1.284.513 1.284 1.283v30.8c0 .77-.514 1.283-1.284 1.283zm-11.55-2.566h10.267V35.933H2.976v28.234z" fill="#CE9912"/><path d="M12.088 71.867H4.13c-1.283 0-2.438-.899-2.695-2.182L.41 65.835c0-.385 0-.77.257-1.155.257-.257.642-.513 1.027-.513h12.833c.385 0 .77.128 1.027.513.256.385.256.77.256 1.155l-1.026 3.978c-.257 1.284-1.412 2.054-2.695 2.054zM3.36 66.733l.642 2.439c0 .128 0 .128.128.128h7.828c.129 0 .257-.128.257-.128l.642-2.439H3.36z" fill="#CE9912"/><path d="M12.601 77H3.618C1.82 77 .409 75.588.409 73.92v-1.412A3.177 3.177 0 013.618 69.3h9.111a3.177 3.177 0 013.209 3.208v1.412C15.809 75.588 14.398 77 12.6 77zm-8.983-5.133c-.385 0-.642.256-.642.641v1.412c0 .257.257.513.642.513h9.111c.257 0 .514-.256.514-.513v-1.412c0-.385-.257-.641-.642-.641H3.618zM14.526 35.933H1.693c-.385 0-.898-.257-1.155-.642a1.165 1.165 0 010-1.283l2.567-5.133c.256-.385.641-.642 1.155-.642h7.7c.513 0 .898.257 1.155.77l2.566 5.133c.257.386.129.899 0 1.284-.256.385-.77.513-1.155.513zm-10.78-2.566h8.727L11.189 30.8H5.03l-1.283 2.567z" fill="#CE9912"/><path d="M11.96 30.8h-7.7c-.77 0-1.284-.513-1.284-1.283v-7.7c0-.77.514-1.284 1.284-1.284h7.7c.77 0 1.283.514 1.283 1.284v7.7c0 .77-.514 1.283-1.284 1.283zm-6.417-2.567h5.133V23.1H5.543v5.133z" fill="#CE9912"/><path d="M11.96 23.1h-7.7c-.77 0-1.284-.513-1.284-1.283 0-5.134.77-10.395 2.31-15.4L6.826.898C7.083.385 7.596 0 8.11 0c.513 0 1.026.385 1.283.898l1.54 5.519a52.708 52.708 0 012.31 15.4c0 .77-.514 1.283-1.284 1.283zm-6.417-2.567h5.133c-.128-4.491-.898-8.983-2.181-13.346L8.11 5.775l-.385 1.412C6.44 11.55 5.67 16.042 5.543 20.533zM50.46 66.733H37.626c-.77 0-1.283-.513-1.283-1.283V44.917c0-.77.513-1.284 1.283-1.284H50.46c.77 0 1.283.514 1.283 1.284V65.45c0 .77-.514 1.283-1.284 1.283zm-11.55-2.566h10.266V46.2H38.91v17.967z" fill="#CE9912"/><path d="M48.021 71.867h-7.828c-1.283 0-2.439-.899-2.695-2.182l-1.155-3.85c-.129-.385 0-.77.256-1.155.257-.385.642-.513 1.027-.513H50.46c.384 0 .77.128 1.026.513.257.385.257.77.257 1.155l-1.027 3.978c-.257 1.284-1.412 2.054-2.695 2.054zm-8.727-5.134l.642 2.439c0 .128.129.128.257.128h7.828c.129 0 .257-.128.257-.128l.642-2.439h-9.626z" fill="#CE9912"/><path d="M48.534 77h-9.111a3.177 3.177 0 01-3.209-3.208V72.38a3.177 3.177 0 013.209-3.209h9.111a3.177 3.177 0 013.209 3.209v1.412A3.177 3.177 0 0148.534 77zm-8.983-5.133c-.385 0-.642.256-.642.641v1.412c0 .385.257.642.642.642h9.112c.385 0 .641-.257.641-.642v-1.412c0-.385-.256-.641-.641-.641H39.55zM50.46 46.2H37.626c-.385 0-.898-.257-1.155-.642a1.166 1.166 0 010-1.283l2.567-5.133c.257-.385.642-.77 1.155-.77h7.7c.513 0 .898.256 1.155.77l2.566 5.133c.257.385.129.898 0 1.283-.128.385-.77.642-1.154.642zm-10.78-2.567h8.726l-1.283-2.566h-6.16l-1.284 2.566z" fill="#CE9912"/><path d="M47.893 41.067h-7.7c-.77 0-1.283-.514-1.283-1.284v-7.7c0-.77.513-1.283 1.283-1.283h7.7c.77 0 1.283.513 1.283 1.283v7.7c0 .77-.513 1.284-1.283 1.284zM41.476 38.5h5.133v-5.133h-5.133V38.5z" fill="#CE9912"/><path d="M47.893 33.367h-7.7c-.77 0-1.283-.514-1.283-1.284 0-5.261.77-10.395 2.31-15.4l1.54-5.518c.256-.513.77-.898 1.283-.898.513 0 1.026.385 1.283.898l1.668 5.518a52.708 52.708 0 012.31 15.4c-.128.77-.641 1.284-1.411 1.284zM41.476 30.8h5.133c-.128-4.492-.77-9.112-2.181-13.475l-.385-1.283-.385 1.411c-1.284 4.364-2.053 8.855-2.182 13.347z" fill="#CE9912"/></symbol><symbol id="coins" viewBox="0 0 68 69"><path d="M60.965 34.247v1.451c0 8.127-13.648 14.715-30.483 14.715-9.292 0-17.608-2.01-23.199-5.175C9.168 52.56 21.98 58.62 37.517 58.62c16.834 0 30.482-7.114 30.482-15.241 0-3.574-2.645-6.723-7.034-9.132z" fill="#FCC62D"/><path d="M37.517 58.62c-16.835 0-30.483-7.114-30.483-15.241v9.904c0 8.127 13.648 14.716 30.483 14.716 16.834 0 30.482-6.59 30.482-14.716v-9.904c0 8.127-13.648 15.24-30.482 15.24z" fill="#FBBD50"/><path d="M10.552 60.201a19.064 19.064 0 002.344 1.812v-9.72a19.482 19.482 0 01-2.345-1.88V60.2zM62.137 52.292v9.72a18.94 18.94 0 002.345-1.81v-9.79a19.287 19.287 0 01-2.345 1.88zM15.241 63.38c.741.383 1.524.745 2.345 1.089v-9.606a32.028 32.028 0 01-2.345-1.143v9.66zM57.447 64.468c.82-.343 1.604-.706 2.345-1.09V53.72c-.74.401-1.524.783-2.345 1.143v9.606zM19.93 65.355c.758.26 1.54.5 2.345.726v-9.513a42.917 42.917 0 01-2.344-.77v9.557zM52.758 66.08a43.033 43.033 0 002.344-.725V55.8c-.757.273-1.539.53-2.344.769v9.513zM25.793 66.925c.765.155 1.548.293 2.344.416v-9.43a51.56 51.56 0 01-2.344-.445v9.459zM46.896 67.341c.796-.124 1.579-.262 2.344-.416v-9.46c-.765.164-1.548.312-2.344.445v9.431zM32.827 67.88c.772.058 1.555.098 2.345.126v-9.383c-.79-.03-1.573-.072-2.345-.135v9.392zM39.861 68.007c.79-.03 1.574-.068 2.345-.125v-9.394c-.771.063-1.555.105-2.345.136v9.383z" fill="#CE9912"/><path d="M30.482 41.026C13.648 41.026 0 33.91 0 25.784v9.905c0 8.127 13.648 14.716 30.482 14.716 16.835 0 30.482-6.59 30.482-14.716v-9.905c0 8.127-13.647 15.242-30.482 15.242z" fill="#FBBD50"/><path d="M3.517 42.607a19.06 19.06 0 002.345 1.812v-9.72a19.602 19.602 0 01-2.345-1.879v9.787zM55.102 34.698v9.72a18.94 18.94 0 002.345-1.81v-9.79a19.295 19.295 0 01-2.345 1.88zM8.207 45.785c.74.384 1.524.746 2.345 1.09v-9.606a32.038 32.038 0 01-2.345-1.143v9.66zM50.413 46.873c.82-.342 1.604-.704 2.345-1.089v-9.66c-.741.402-1.525.784-2.345 1.144v9.605zM12.896 47.76c.758.26 1.54.502 2.345.727v-9.513a43.004 43.004 0 01-2.345-.77v9.557zM45.723 48.487a43.033 43.033 0 002.345-.726v-9.556c-.757.273-1.54.53-2.345.769v9.513zM18.758 49.33c.766.156 1.549.294 2.345.417v-9.43a51.56 51.56 0 01-2.345-.445v9.459zM39.861 49.748c.796-.124 1.58-.262 2.345-.416v-9.46a53.11 53.11 0 01-2.345.445v9.431zM25.793 50.288c.771.057 1.554.097 2.344.125V41.03c-.79-.03-1.573-.072-2.344-.135v9.392zM32.827 50.413c.79-.03 1.573-.068 2.345-.126v-9.393c-.772.062-1.555.105-2.345.136v9.383z" fill="#CE9912"/><path d="M60.164 39.043c-3.139 6.514-15.23 11.37-29.682 11.37-5.398 0-10.465-.68-14.862-1.868 4.253 2.888 11.823 5.345 21.897 5.345 16.04 0 25.792-6.226 25.792-10.511 0-1.43-1.1-2.948-3.145-4.336zM36.344 38.689c-16.834 0-30.482-6.589-30.482-14.716v-6.626C2.179 19.655 0 22.55 0 25.793c0 8.127 13.648 15.24 30.482 15.24 8.106 0 15.466-1.651 20.926-4.27-4.444 1.224-9.583 1.926-15.064 1.926z" fill="#FFD949"/><path d="M36.344 29.302c-16.834 0-30.482-7.114-30.482-15.242v9.905c0 8.127 13.648 14.716 30.482 14.716s30.482-6.59 30.482-14.716V14.06c0 8.127-13.647 15.242-30.482 15.242z" fill="#FBBD50"/><path d="M9.38 30.883a19.066 19.066 0 002.344 1.811v-9.72a19.589 19.589 0 01-2.345-1.878v9.787zM60.965 22.974v9.72a18.947 18.947 0 002.344-1.81v-9.79a19.303 19.303 0 01-2.344 1.88zM14.069 34.062c.74.383 1.524.745 2.344 1.089v-9.606a32.088 32.088 0 01-2.344-1.143v9.66zM56.275 35.15c.82-.343 1.604-.705 2.345-1.09v-9.659c-.741.401-1.524.783-2.345 1.143v9.606zM18.758 36.037c.758.26 1.54.5 2.345.726V27.25a42.863 42.863 0 01-2.345-.77v9.557zM51.585 36.763a43.006 43.006 0 002.345-.726v-9.556c-.757.273-1.54.53-2.345.769v9.513zM24.62 37.607c.766.155 1.549.293 2.345.416v-9.43c-.796-.133-1.58-.28-2.345-.445v9.459zM45.723 38.024a55.34 55.34 0 002.345-.416v-9.46c-.765.164-1.549.312-2.345.445v9.431zM31.655 38.563c.771.058 1.554.098 2.344.126v-9.383c-.79-.03-1.573-.072-2.344-.134v9.391zM38.689 38.689c.79-.03 1.573-.068 2.345-.126V29.17c-.772.063-1.555.105-2.345.136v9.383z" fill="#CE9912"/><path d="M66.826 14.069c0 8.127-13.647 15.24-30.482 15.24-16.834 0-30.482-7.113-30.482-15.24C5.862 5.942 19.51 0 36.344 0s30.482 5.942 30.482 14.069z" fill="#FCC62D"/><path d="M36.344 24.58c-16.04 0-25.793-6.225-25.793-10.511 0-4.285 9.752-10.552 25.793-10.552 16.04 0 25.793 6.267 25.793 10.552 0 4.286-9.752 10.511-25.793 10.511z" fill="#FFD949"/><path d="M44.294 15.662c.962-.204 1.526-.797 1.318-1.474l-.223-.722c-.163-.531-.797-.974-1.574-1.195-1.058-2.259-3.754-3.077-7.76-3.077-.19 0-.374.005-.557.012-1.367.056-2.73-.075-3.794-.465-.434-.158-.787-.323-1.02-.496-.106-.077-.361-.028-.361.07 0 .172.013.375.05.6.146.876-.028.744-.893 1.618a5.91 5.91 0 00-1.191 1.742c-.773.221-1.404.663-1.567 1.192l-.222.723c-.208.676.356 1.27 1.317 1.473.275 1.73 1.45 3.25 4.015 4.087l-.141 1.216c-.038.325-.318.625-.726.772l-5.171 1.867c3.02.633 6.462 1.015 10.262 1.015 3.747 0 7.146-.371 10.135-.987l-5.059-1.891c-.4-.15-.674-.448-.71-.767l-.142-1.225c2.564-.837 3.74-2.358 4.014-4.088z" fill="#F0C41B"/></symbol><symbol id="cross" viewBox="0 0 62 74"><path d="M35 17h-8l-.5 12H16v7.5h9.5v33H36v-33h10V29H35V17z" fill="#FFD949"/><mask id="a" maskUnits="userSpaceOnUse" x="0" y="0" width="62" height="74"><path d="M0 0h62v74H0V0z" fill="#C4C4C4"/></mask><g mask="url(#a)"><path d="M51.837-29.451a1.796 1.796 0 00-.903-2.387 1.824 1.824 0 00-2.407.895L30.5 8.378l-18.027-39.32a1.824 1.824 0 00-2.407-.896 1.796 1.796 0 00-.903 2.387l19.52 42.575v1.853h-2.346a1.81 1.81 0 00-1.819 1.802v9.979h-9.636a1.81 1.81 0 00-1.819 1.802v8.257a1.81 1.81 0 001.819 1.803h9.636v32.577A1.81 1.81 0 0026.337 73h8.327a1.81 1.81 0 001.818-1.803V38.62h9.637a1.81 1.81 0 001.818-1.802V28.56a1.81 1.81 0 00-1.818-1.803h-9.637V16.78a1.81 1.81 0 00-1.818-1.802h-2.346v-1.853L51.837-29.45zM34.663 30.363H44.3v4.651h-9.637a1.81 1.81 0 00-1.818 1.803v32.578h-4.692V36.817a1.81 1.81 0 00-1.818-1.803H16.7v-4.652h9.637a1.81 1.81 0 001.818-1.802v-9.978h4.692v9.978a1.81 1.81 0 001.818 1.803z" fill="#DE9816"/></g></symbol><symbol id="diamond" viewBox="0 0 63 78"><path d="M31.2 1.3L39 9.1H23.4l7.8-7.8zM28.6 19.5h-7.8L15.6 9.1h7.8l5.2 10.4zM46.8 9.1H39l-5.2 10.4h7.8l5.2-10.4z" fill="#FFD949"/><path d="M23.4 9.1l5.2 10.4h5.2L39 9.1H23.4zM15.6 9.1h7.8l7.8-7.8H20.8l-5.2 7.8zM41.6 1.3H31.2L39 9.1h7.8l-5.2-7.8z" fill="#FFD949"/><path d="M31.2 68.9c-12.22 0-22.1-9.88-22.1-22.1s9.88-22.1 22.1-22.1 22.1 9.88 22.1 22.1-9.88 22.1-22.1 22.1zm10.4-49.4H20.8C9.75 23.92 1.3 34.19 1.3 46.8c0 16.51 13.39 29.9 29.9 29.9 16.51 0 29.9-13.39 29.9-29.9 0-12.61-8.32-22.88-19.5-27.3z" fill="#FFE100"/><path d="M42.9 9.1l-5.2 10.4h3.9l5.2-10.4h-3.9zM41.6 1.3h-3.9l5.2 7.8h3.9l-5.2-7.8z" fill="#FBBD50"/><path d="M41.6 19.5h-3.9c11.05 4.42 19.5 14.69 19.5 27.3 0 15.86-12.35 28.86-27.95 29.77.65 0 1.3.13 1.95.13 16.51 0 29.9-13.39 29.9-29.9 0-12.61-8.32-22.88-19.5-27.3z" fill="#FFA800"/><path d="M19.5 9.1l5.2 10.4h-3.9L15.6 9.1h3.9zM20.8 1.3h3.9l-5.2 7.8h-3.9l5.2-7.8z" fill="#fff"/><path d="M20.8 19.5h3.9C13.65 23.92 5.2 34.19 5.2 46.8c0 15.86 12.35 28.86 27.95 29.77-.65.13-1.3.13-1.95.13-16.51 0-29.9-13.39-29.9-29.9 0-12.61 8.45-22.88 19.5-27.3z" fill="#fff"/><path d="M31.2 78C14.04 78 0 63.96 0 46.8c0-12.48 7.93-23.66 20.28-28.47.13 0 .26-.13.52-.13h20.8c.13 0 .39 0 .52.13C54.47 23.14 62.4 34.32 62.4 46.8 62.4 63.96 48.49 78 31.2 78zM21.06 20.8C9.88 25.35 2.6 35.49 2.6 46.8c0 15.73 12.87 28.6 28.6 28.6 15.73 0 28.6-12.87 28.6-28.6 0-11.31-7.28-21.45-18.46-26H21.06zM31.2 70.2c-12.87 0-23.4-10.53-23.4-23.4s10.53-23.4 23.4-23.4 23.4 10.53 23.4 23.4-10.4 23.4-23.4 23.4zm0-44.2c-11.44 0-20.8 9.36-20.8 20.8 0 11.44 9.36 20.8 20.8 20.8 11.44 0 20.8-9.36 20.8-20.8C52 35.36 42.77 26 31.2 26zM39.13 10.4s-.13 0 0 0H23.4c-.52 0-1.04-.26-1.17-.78-.13-.52-.13-1.04.26-1.43l7.8-7.8c.52-.52 1.3-.52 1.82 0l7.67 7.67c.39.26.52.65.52 1.04.13.78-.52 1.3-1.17 1.3zM26.65 7.8h9.36L31.2 3.12 26.65 7.8z" fill="#CE9912"/><path d="M28.73 20.8s-.13 0 0 0h-7.8c-.52 0-.91-.26-1.17-.78l-5.2-10.4c-.26-.39-.13-.91 0-1.3.26-.26.65-.52 1.04-.52h7.8c.52 0 .91.26 1.17.78l5.07 10.14c.13.26.26.52.26.78.13.78-.52 1.3-1.17 1.3zm-7.02-2.6h4.94l-3.9-7.8h-4.94l3.9 7.8zM41.6 20.8h-7.8c-.39 0-.91-.26-1.17-.65a1.18 1.18 0 010-1.3l5.2-10.4c.26-.39.78-.65 1.17-.65h7.8c.39 0 .91.26 1.17.65.26.39.26.91 0 1.3l-5.2 10.4c-.13.39-.65.65-1.17.65zm-5.59-2.6h4.94l3.9-7.8h-4.94l-3.9 7.8z" fill="#CE9912"/><path d="M33.8 20.8h-5.2c-.52 0-.91-.26-1.17-.78l-5.2-10.4c-.26-.39-.13-.91 0-1.3.39-.26.78-.52 1.17-.52H39c.39 0 .91.26 1.17.65.26.39.26.91 0 1.3l-5.2 10.4c-.13.39-.65.65-1.17.65zm-4.29-2.6h3.64l3.9-7.8H25.61l3.9 7.8z" fill="#CE9912"/><path d="M23.4 10.4h-7.8c-.52 0-.91-.26-1.17-.65a1.18 1.18 0 010-1.3l5.2-7.8c.39-.39.78-.65 1.17-.65h10.4c.52 0 1.04.26 1.17.78.26.52.13 1.04-.26 1.43l-7.8 7.8c-.13.26-.52.39-.91.39zm-5.33-2.6h4.81l5.2-5.2h-6.63l-3.38 5.2z" fill="#CE9912"/><path d="M46.8 10.4H39c-.39 0-.65-.13-.91-.39l-7.8-7.8c-.39-.39-.39-.91-.26-1.43.26-.52.65-.78 1.17-.78h10.4c.39 0 .78.26 1.04.52l5.2 7.8c.26.39.26.91 0 1.3s-.52.78-1.04.78zm-7.15-2.6h4.81l-3.51-5.2h-6.63l5.33 5.2z" fill="#CE9912"/></symbol><symbol id="lamp" viewBox="0 0 227 297"><path d="M192.333 68.35c-7.532-5.918-15.939-10.872-24.966-14.829V31.46c0-17.347-14.112-31.46-31.459-31.46H90.463C73.116 0 59.004 14.113 59.004 31.46v22.061c-9.027 3.957-17.434 8.911-24.966 14.829C12.087 85.596 0 108.742 0 133.525c0 24.783 12.088 47.929 34.038 65.175 7.537 5.922 15.951 10.879 24.985 14.837-.004.123-.019.244-.019.368v6.155c0 11.508 6.214 21.587 15.46 27.072v25.543c0 5.483 4.446 9.929 9.929 9.929 5.483 0 9.929-4.446 9.929-9.929V251.52h8.936v35.552c0 5.483 4.446 9.929 9.929 9.929 5.483 0 9.929-4.446 9.929-9.929V251.52h8.936v21.155c0 5.483 4.446 9.929 9.929 9.929 5.483 0 9.929-4.446 9.929-9.929v-25.543c9.246-5.485 15.46-15.564 15.46-27.072v-6.155c0-.124-.014-.245-.019-.368 9.034-3.958 17.448-8.916 24.985-14.837 21.951-17.246 34.038-40.392 34.038-65.175 0-24.783-12.091-47.929-34.041-65.175zm-44.824 65.175c0 41.96-18.09 71.202-34.324 71.202-16.234 0-34.324-29.242-34.324-71.202 0-41.96 18.09-71.202 34.324-71.202 16.234 0 34.324 29.242 34.324 71.202zM78.861 31.46c0-6.398 5.205-11.603 11.602-11.603h45.445c6.397 0 11.602 5.205 11.602 11.603v15.261c-10.964-2.787-22.507-4.255-34.324-4.255-11.817 0-23.36 1.469-34.324 4.255V31.46h-.001zM19.856 133.525c0-28.842 22.594-53.733 54.988-64.913-9.832 16.399-15.841 39.259-15.841 64.913 0 25.654 6.009 48.514 15.841 64.913-32.394-11.18-54.988-36.071-54.988-64.913zm116.051 98.137H90.462c-6.305 0-11.442-5.059-11.588-11.33 10.96 2.784 22.498 4.252 34.311 4.252 11.813 0 23.351-1.467 34.311-4.252-.147 6.271-5.283 11.33-11.589 11.33zm15.618-33.224c9.832-16.399 15.841-39.259 15.841-64.913 0-25.654-6.009-48.514-15.841-64.913 32.394 11.18 54.988 36.072 54.988 64.913 0 28.841-22.593 53.733-54.988 64.913z" fill="#000"/><path d="M83.399 132.93c0 16.424 13.362 29.786 29.786 29.786s29.786-13.362 29.786-29.786-13.362-29.786-29.786-29.786-29.786 13.362-29.786 29.786zm29.786-9.929c5.474 0 9.929 4.454 9.929 9.929 0 5.474-4.454 9.929-9.929 9.929-5.475 0-9.929-4.454-9.929-9.929 0-5.474 4.455-9.929 9.929-9.929z" fill="#000"/></symbol><symbol id="medal-g" viewBox="0 0 234 314"><path d="M233.224 141.649l-15.331-20.977c-.963-1.347-1.027-3.207-.065-4.554l15.011-21.17c1.347-1.924.706-4.618-1.347-5.709l-22.901-12.252a3.833 3.833 0 01-1.989-4.106l4.298-25.595c.385-2.31-1.347-4.49-3.72-4.555l-25.916-1.09c-1.668-.064-3.144-1.219-3.593-2.823L170.487 13.8c-.642-2.245-3.144-3.464-5.325-2.501l-23.863 10.263a4.056 4.056 0 01-4.49-.962L119.488 1.291c-1.603-1.732-4.298-1.732-5.901.065L96.523 20.92c-1.09 1.283-2.886 1.668-4.426 1.026l-23.992-9.879c-2.18-.898-4.618.321-5.26 2.566l-6.864 25.018a3.978 3.978 0 01-3.528 2.887l-25.916 1.475c-2.374.129-4.041 2.31-3.657 4.62l4.683 25.53a3.88 3.88 0 01-1.924 4.106L2.93 90.843C.877 91.998.3 94.692 1.647 96.553l15.332 20.976c.962 1.347 1.026 3.207.064 4.554l-15.01 21.17c-1.348 1.924-.707 4.618 1.346 5.709l22.901 12.252a3.831 3.831 0 011.989 4.106l-4.298 25.595c-.385 2.309 1.347 4.491 3.72 4.555l25.917 1.09c1.668.064 3.143 1.219 3.592 2.823l7.249 24.954c.641 2.245 3.143 3.464 5.324 2.501l23.864-10.263a4.055 4.055 0 014.49.962l17.32 19.309c1.604 1.732 4.298 1.732 5.902-.065l17.063-19.565c1.091-1.283 2.887-1.668 4.427-1.026l23.991 9.879c2.181.898 4.619-.321 5.26-2.566l6.864-25.018a3.979 3.979 0 013.529-2.887l25.916-1.475c2.373-.129 4.041-2.31 3.656-4.619l-4.683-25.531a3.88 3.88 0 011.925-4.106l22.708-12.573c2.053-1.026 2.63-3.721 1.219-5.645zM117.5 189.568c-38.81 0-70.435-31.625-70.435-70.435S78.69 48.697 117.5 48.697s70.435 31.626 70.435 70.436c0 38.874-31.625 70.435-70.435 70.435zM180.943 235.114c-3.721 3.784-8.917 6.03-14.498 6.03-1.988 0-3.977-.321-5.837-.834l-16.551-5.004-12.765 11.675c-.449.385-.834.77-1.283 1.091l20.528 63.635c.705 2.245 3.592 2.759 5.067.898l14.947-19.18c.706-.962 1.989-1.347 3.079-1.027l23.286 6.8c2.245.642 4.298-1.475 3.592-3.656l-19.565-60.428zM91.006 235.306l-16.55 5.004c-1.925.577-3.849.834-5.838.834-5.58 0-10.712-2.246-14.497-6.03l-19.566 60.492c-.705 2.245 1.348 4.298 3.593 3.656l23.286-6.799c1.155-.321 2.373.064 3.079 1.026l14.947 19.18c1.41 1.861 4.362 1.348 5.067-.898l20.528-63.635a10.497 10.497 0 01-1.283-1.091l-12.766-11.739z" fill="#000"/><circle cx="119.326" cy="115.147" r="102.959" fill="#000"/><path d="M159.53 104.434l-26.558-1.924-10.007-24.633c-1.86-4.619-8.468-4.619-10.328 0L102.63 102.51l-26.558 1.924c-5.003.385-6.992 6.608-3.207 9.815L93.2 131.441l-6.35 25.852c-1.22 4.875 4.105 8.724 8.339 6.094l22.58-14.049 22.58 14.049c4.234 2.63 9.559-1.219 8.34-6.094l-6.351-25.852 20.335-17.192c3.849-3.207 1.86-9.43-3.143-9.815z" fill="#fff"/></symbol><symbol id="medal" viewBox="0 0 43 72"><path d="M15.409 1.792c0-.24.119-.359.119-.598H4.538l7.406 31.653c.598-.358 1.195-.717 1.792-.956l-5.614-30.1h7.287z" fill="#fff"/><path d="M28.667 1.194c.119.24.119.359.119.598h5.972l-5.614 30.1c.598.239 1.195.597 1.792.955l7.525-31.653h-9.794z" fill="#DE9816"/><path d="M21.5 29.861c3.106 0 5.972 1.075 8.48 2.986l5.854-31.653H7.166l5.853 31.653c2.508-1.792 5.375-2.986 8.48-2.986z" fill="#FCC309"/><path d="M21.5 70.472c-9.197 0-16.722-9.078-16.722-20.305 0-11.228 7.525-20.306 16.722-20.306 9.197 0 16.722 9.078 16.722 20.306 0 11.227-7.525 20.305-16.722 20.305z" fill="#FFD949"/><path d="M21.5 29.861c9.197 0 16.722 9.078 16.722 20.306 0 11.228-7.525 20.305-16.722 20.305 11.228 0 20.306-9.077 20.306-20.305S32.728 29.86 21.5 29.86z" fill="#DE9816"/><path d="M4.778 50.167c0-11.228 7.525-20.306 16.722-20.306-11.228 0-20.306 9.197-20.306 20.306 0 11.108 9.078 20.305 20.306 20.305-9.197 0-16.722-9.077-16.722-20.305z" fill="#fff"/><path d="M21.5 39.417l2.389 7.166h7.167l-5.973 4.778 2.39 7.167-5.973-3.584-5.972 3.584 2.389-7.167-5.973-4.778h7.167l2.389-7.166z" fill="#EFEFEF"/><path d="M21.5 29.861c2.15 0 4.18.358 6.092.956l5.733-29.623H9.555l5.853 29.623c1.912-.598 3.942-.956 6.092-.956z" fill="#FFD949"/><path d="M21.5 71.667C9.675 71.667 0 62.11 0 50.167c0-11.945 9.675-21.5 21.5-21.5S43 38.342 43 50.167s-9.675 21.5-21.5 21.5zm0-40.612c-10.511 0-19.111 8.6-19.111 19.112 0 10.51 8.6 19.11 19.111 19.11 10.511 0 19.111-8.6 19.111-19.11 0-10.511-8.6-19.112-19.111-19.112z" fill="#CE9912"/><path d="M24.128 66.65c-.597 0-1.075-.358-1.195-.956-.119-.597.359-1.314.956-1.433 1.672-.239 3.225-.836 4.658-1.672.598-.358 1.314-.12 1.673.478.358.597.119 1.313-.478 1.672-1.672.955-3.583 1.672-5.495 1.911h-.12zm-5.375 0h-.24c-1.91-.358-3.702-1.075-5.494-2.03-.597-.359-.716-1.076-.477-1.673.358-.597 1.075-.717 1.672-.478 1.433.837 2.986 1.434 4.658 1.673.597.12 1.075.716.956 1.433 0 .717-.478 1.075-1.075 1.075zm14.572-5.256c-.239 0-.597-.119-.717-.238-.477-.478-.597-1.195-.12-1.673a15.594 15.594 0 002.51-4.3c.238-.597.955-.955 1.552-.716.597.239.956.955.717 1.552a20.963 20.963 0 01-2.867 5.017c-.358.24-.717.358-1.075.358zm-23.77 0c-.358 0-.716-.119-.955-.477-1.314-1.553-2.27-3.225-2.867-5.017-.239-.597.12-1.314.717-1.553.597-.239 1.314.12 1.553.717a15.596 15.596 0 002.508 4.3c.478.478.358 1.314-.12 1.672a1.29 1.29 0 01-.835.358zm27.473-9.913c-.717 0-1.195-.478-1.195-1.195 0-1.672-.239-3.344-.836-4.897-.239-.597.12-1.314.717-1.553.597-.239 1.314.12 1.553.717.716 1.791.955 3.703.955 5.733 0 .597-.477 1.194-1.194 1.194zm-31.056-.12c-.716 0-1.194-.478-1.194-1.194 0-1.912.358-3.942.956-5.734.238-.597.955-.955 1.552-.716.598.239.956.955.717 1.552-.597 1.553-.836 3.225-.836 4.898 0 .716-.478 1.194-1.195 1.194zm27.472-9.914c-.358 0-.716-.12-.955-.478-1.075-1.313-2.389-2.389-3.822-3.224-.598-.359-.717-1.075-.478-1.673.358-.597 1.075-.716 1.672-.478a16.59 16.59 0 014.42 3.703c.477.478.358 1.314-.12 1.673-.239.358-.478.477-.717.477zm-23.769 0c-.239 0-.597-.12-.717-.239-.477-.477-.597-1.194-.119-1.672 1.314-1.553 2.747-2.747 4.42-3.703.597-.358 1.313-.12 1.672.478.358.597.12 1.314-.478 1.672-1.433.836-2.747 1.911-3.822 3.225-.359 0-.717.24-.956.24zm14.572-5.375h-.239a17.647 17.647 0 00-5.016 0c-.598.12-1.314-.358-1.434-.955-.119-.598.359-1.314.956-1.434a16.069 16.069 0 015.853 0c.597.12 1.075.717.955 1.434 0 .597-.597.955-1.075.955zM27.472 59.722c-.239 0-.478 0-.597-.12L21.5 56.379l-5.375 3.225c-.478.239-.955.239-1.314-.12-.358-.358-.597-.836-.358-1.313l2.15-6.331-5.375-4.3c-.358-.358-.597-.836-.358-1.314.119-.478.597-.836 1.075-.836h6.33l2.15-6.33c.12-.478.597-.837 1.075-.837s.956.359 1.075.837l2.15 6.33h6.33c.478 0 .956.358 1.075.836.12.478 0 .956-.358 1.314l-5.375 4.3 2.15 6.33c.12.478 0 .956-.358 1.314-.239.24-.478.24-.717.24zM21.5 53.75c.239 0 .478 0 .597.12l3.225 1.91-1.314-4.06c-.119-.478 0-.956.359-1.314l3.344-2.628H23.89c-.478 0-.956-.359-1.075-.836L21.5 43.239l-1.314 3.822c-.12.478-.597.717-1.075.717h-3.703l3.345 2.628c.358.358.597.836.358 1.313l-1.314 4.062 3.225-1.912s.24-.119.478-.119z" fill="#CE9912"/><path d="M10.989 34.042c-.12 0-.358 0-.478-.12-.358-.12-.597-.477-.716-.836L6.092 17.081c-.12-.598.239-1.314.836-1.434.597-.119 1.314.24 1.433.836l3.464 14.573a21.508 21.508 0 0119.47 0l6.688-28.667H5.136l1.075 4.539c.12.597-.358 1.314-.956 1.433-.597.12-1.314-.239-1.433-.836L2.39 1.553c0-.359 0-.717.239-1.075.239-.24.597-.478.955-.478h35.834c.358 0 .716.12.955.478.24.358.24.716.24 1.075l-7.406 31.652c-.12.359-.359.717-.717.837-.358.119-.717.119-1.075-.12-5.972-3.703-13.856-3.703-19.828 0-.239.12-.358.12-.597.12z" fill="#CE9912"/><path d="M7.167 11.944c0-.716-.478-1.194-1.195-1.194-.716 0-1.194.597-1.194 1.194 0 .598.478 1.195 1.194 1.195.717 0 1.195-.478 1.195-1.195zM15.408 32.011c-.239 0-.477 0-.597-.12-.239-.119-.478-.477-.597-.835L8.36 1.433c0-.358 0-.716.239-.955.239-.24.597-.478.956-.478h23.77c.357 0 .716.12.955.478.239.239.358.597.239.955l-5.853 29.622c-.12.359-.24.598-.597.837-.24.119-.598.238-.956.119-3.703-1.194-7.764-1.194-11.347 0h-.359zM10.988 2.39l5.376 26.875a21.35 21.35 0 0110.272 0l5.256-26.875H10.989z" fill="#CE9912"/></symbol><symbol id="russia-map" viewBox="0 0 260 166"><path d="M243.199 112.566l-7.303-10.056-8.728-2.263-3.442 6.418-5.016-.27-1.475-20.827 6.097-13.005 5.041-2.583-4.942-13.644 3.491-8.36 3.885 2.336 7.818 15.539 4.303 3.098L258 72.66l-12.072-20.627-7.253.737-5.016-4.426.024-11.383-5.827-14.63-7.45-4.5-2.95-5.532 4.13-5.729-7.179-4.474-1.328 7.056-9.49 9.982-3.221 9.737 1.254 5.066-8.704 9.047-2.409 6.614-5.508.467-6.958 6.148 1.106 5.064-6.392 8.729-4.623-5.016-5.286 4.377-12.736 2.68-.205.391-1.491-9.514-4.77.345-15.048 6.588-3.27 6.025-6.269.515-3.27 3.813-6 .589-3.835-4.697-9.27 9.589-17.038-8.966-23.26-5.245-3.909 1.943 4.573-9.638-.03-.107 2.833 6.942 7.352-.172-1.943-15.612-5.63-.443-13.818 10.399-1.18 3.837-10.769 2.434-4.819-1.673-8.581 5.852 1.352 5.705L13.9 98.182l3.639 12.442-9.589 2.974-5.95.64.86 10.916 7.549 13.179 1.77 7.45 5.925-10.696 3.123-.86 5.262 1.229.221-10.573 5.507-2.876 13.835 2.569 12.984 13.541 7.701-6.595 19.941 3.787 4.327 8.211 5.606-.909 7.499 13.399 9.958 1.918 7.917 5.976 10.99-5.459 14.088 2.188 2.803-8.753 8.188 1.278 4.475 3.197 10.006-2.212 8.09.171 6.81-7.057 8.999-1.474 1.647-4.254.566-12.614 7.991-3.491 9.982 6.196 8.212-2.483 3.467 2.385 4.868-7.745 3.418 4.991 3.27 12.908 4.179-1.623 2.238-5.998z"/></symbol><symbol id="shield" viewBox="0 0 460 460"><path d="M454.414 72.656a15.037 15.037 0 00-12.589-3c-.136.029-13.881 2.918-35.41 2.918-43.381 0-107.466-11.078-166.409-63.852a15 15 0 00-20.012 0C161.053 61.494 96.967 72.573 53.585 72.574c-21.534 0-35.272-2.889-35.374-2.911A15 15 0 000 84.316C0 227.6 44.304 315.842 81.471 364.637c50.804 66.7 110.037 90.466 148.529 90.466s97.726-23.766 148.529-90.466C415.696 315.842 460 227.599 460 84.316c0-4.53-2.063-8.813-5.586-11.66zM352.079 188.531L217.928 322.682a14.954 14.954 0 01-10.606 4.394 14.948 14.948 0 01-10.606-4.394l-76.794-76.794c-5.858-5.858-5.858-15.355 0-21.213 5.857-5.858 15.355-5.858 21.213 0l66.188 66.187 123.545-123.544c5.857-5.857 15.355-5.858 21.213 0 5.857 5.858 5.857 15.355-.002 21.213z"/></symbol><symbol id="treasure" viewBox="0 0 511.672 511.672"><path d="M473.853 222.264l37.757-57.073s4.779-141.878-85.273-149.217H85.32C-4.731 23.313.047 165.19.047 165.19l37.929 56.526L0 325.057l42.629 170.579 426.398.062 42.645-170.595-37.819-102.839z" fill="#a85d5d"/><path d="M.593 165.987C3.186 126.403 16.771 42.878 85.32 37.273H426.336c68.551 5.606 82.15 89.162 84.728 128.73l.546-.812s4.779-141.878-85.273-149.217H85.32C-4.731 23.313.047 165.19.047 165.19l.546.797z" fill="#fff" opacity=".2"/><path fill="#723f3f" d="M511.672 325.104L0 325.057l37.976-103.34 435.877.547z"/><path fill="#8c4c4c" d="M473.853 222.264l-435.877-.547L.047 165.19h511.562z"/><path d="M266.485 410.315c0 5.887-4.778 10.665-10.649 10.665-5.887 0-10.665-4.778-10.665-10.665 0-5.888 4.778-10.649 10.665-10.649 5.871 0 10.649 4.762 10.649 10.649z"/><g fill="#ffce54"><path d="M170.251 295.045c-12.258 0-24.079-2.701-32.448-7.401-6.387-3.591-10.181-8.042-10.181-11.914 0-7.87 16.615-19.315 42.629-19.315 12.257 0 24.094 2.701 32.463 7.417 6.371 3.575 10.181 8.026 10.181 11.898 0 7.885-16.615 19.315-42.644 19.315zM255.524 295.045c-12.258 0-24.079-2.701-32.464-7.401-6.371-3.591-10.165-8.042-10.165-11.914 0-7.87 16.599-19.315 42.629-19.315 12.257 0 24.078 2.701 32.463 7.417 6.371 3.575 10.165 8.026 10.165 11.898 0 7.885-16.597 19.315-42.628 19.315z"/><path d="M340.797 295.045c-12.258 0-24.094-2.701-32.463-7.401-6.371-3.591-10.182-8.042-10.182-11.914 0-7.87 16.615-19.315 42.645-19.315 12.258 0 24.078 2.701 32.448 7.417 6.371 3.575 10.181 8.026 10.181 11.898 0 7.885-16.613 19.315-42.629 19.315zM212.895 265.065c-12.258 0-24.094-2.686-32.464-7.401-6.371-3.592-10.181-8.026-10.181-11.899 0-7.885 16.614-19.332 42.645-19.332 12.242 0 24.078 2.717 32.448 7.417 6.371 3.576 10.181 8.042 10.181 11.915 0 7.869-16.615 19.3-42.629 19.3z"/><path d="M298.152 265.065c-12.242 0-24.078-2.686-32.447-7.401-6.371-3.592-10.181-8.026-10.181-11.899 0-7.885 16.615-19.332 42.628-19.332 12.258 0 24.094 2.717 32.464 7.417 6.371 3.576 10.181 8.042 10.181 11.915 0 7.869-16.613 19.3-42.645 19.3z"/><path d="M255.524 235.099c-12.258 0-24.079-2.702-32.464-7.417-6.371-3.575-10.165-8.026-10.165-11.898 0-7.87 16.599-19.315 42.629-19.315 12.257 0 24.078 2.701 32.463 7.417 6.371 3.576 10.165 8.026 10.165 11.898 0 7.869-16.597 19.315-42.628 19.315zM91.629 325.104h72.516c4.153-3.123 6.417-6.511 6.417-9.415 0-3.873-3.81-8.308-10.181-11.899-8.37-4.715-20.206-7.401-32.463-7.401-26.015 0-42.629 11.431-42.629 19.301 0 3.028 2.311 6.384 6.34 9.414zM176.902 325.104h72.516c4.153-3.123 6.402-6.511 6.402-9.415 0-3.873-3.794-8.308-10.165-11.899-8.37-4.715-20.206-7.401-32.464-7.401-26.03 0-42.629 11.431-42.629 19.301.001 3.028 2.312 6.384 6.34 9.414z"/></g><path fill="#ccd1d9" d="M206.586 325.106h96.27v98.75h-96.27z"/><g fill="#ffce54"><path d="M262.16 325.104h72.516c4.154-3.123 6.418-6.511 6.418-9.415 0-3.873-3.795-8.308-10.165-11.899-8.386-4.715-20.206-7.401-32.464-7.401-26.029 0-42.645 11.431-42.645 19.301 0 3.028 2.327 6.384 6.34 9.414zM347.434 325.104h72.516c4.154-3.123 6.418-6.511 6.418-9.415 0-3.873-3.81-8.308-10.181-11.899-8.37-4.715-20.206-7.401-32.448-7.401-26.029 0-42.645 11.431-42.645 19.301 0 3.028 2.31 6.384 6.34 9.414z"/></g><path d="M434.331 325.104c1.733-2.951 2.702-6.121 2.702-9.415 0-15.179-20.098-27.732-46.158-29.7 2.076-3.186 3.217-6.652 3.217-10.259 0-14.507-18.332-26.593-42.66-29.372 0-.203.016-.406.016-.593 0-14.522-18.316-26.608-42.66-29.387.016-.188.031-.391.031-.594 0-16.552-23.86-29.98-53.294-29.98-29.435 0-53.294 13.429-53.294 29.98 0 .203.016.406.031.594-24.344 2.779-42.661 14.865-42.661 29.387 0 .188.016.39.016.593-24.328 2.779-42.66 14.865-42.66 29.372 0 3.622 1.14 7.104 3.248 10.321-25.78 2.093-45.58 14.568-45.58 29.638 0 3.294.968 6.464 2.701 9.415h357.005zm-197.342-5.106c-6.605 2.811-15.053 4.356-23.797 4.356s-17.192-1.546-23.782-4.356c-3.654-1.562-5.934-3.154-7.198-4.31 1.265-1.124 3.544-2.733 7.198-4.278 6.59-2.812 15.038-4.373 23.782-4.373 8.745 0 17.192 1.562 23.797 4.373 3.638 1.545 5.918 3.154 7.199 4.278-1.281 1.156-3.561 2.749-7.199 4.31zm-5.262-39.974c-3.638-1.546-5.918-3.154-7.199-4.294.297-.266.656-.547 1.062-.858 9.322-1.281 17.676-3.936 24.344-7.59 1.843-.125 3.716-.203 5.59-.203s3.748.078 5.574.203c6.684 3.654 15.038 6.309 24.359 7.59.406.312.766.593 1.062.858-1.28 1.14-3.561 2.748-7.199 4.294-6.604 2.811-15.053 4.372-23.796 4.372-8.745 0-17.192-1.562-23.797-4.372zm90.519 39.974c-6.589 2.811-15.037 4.356-23.781 4.356s-17.191-1.546-23.797-4.356c-3.639-1.562-5.918-3.154-7.199-4.31 1.281-1.124 3.561-2.733 7.199-4.278 6.605-2.812 15.053-4.373 23.797-4.373s17.192 1.562 23.781 4.373c3.654 1.545 5.934 3.154 7.199 4.278-1.265 1.156-3.545 2.749-7.199 4.31zm85.274-8.588c3.654 1.545 5.935 3.154 7.199 4.278-1.265 1.155-3.545 2.748-7.199 4.31-6.589 2.811-15.053 4.356-23.781 4.356-8.744 0-17.191-1.546-23.797-4.356-3.654-1.562-5.934-3.154-7.199-4.31 1.266-1.124 3.545-2.733 7.199-4.278 6.605-2.812 15.053-4.373 23.797-4.373 8.728 0 17.192 1.562 23.781 4.373zm-66.723-44.332c8.744 0 17.192 1.547 23.782 4.357 3.653 1.562 5.934 3.154 7.198 4.294-1.265 1.14-3.545 2.748-7.198 4.294-6.59 2.811-15.038 4.372-23.782 4.372s-17.191-1.562-23.797-4.372c-3.654-1.546-5.934-3.154-7.198-4.294.296-.266.655-.547 1.062-.858 9.322-1.281 17.676-3.936 24.344-7.59a82.36 82.36 0 015.589-.203zm-42.645-29.98c8.744 0 17.192 1.546 23.798 4.356 3.653 1.562 5.934 3.154 7.198 4.31-.297.25-.656.546-1.062.859-9.322 1.28-17.677 3.95-24.345 7.573-1.842.141-3.7.219-5.59.219-1.873 0-3.731-.078-5.574-.219-6.684-3.623-15.037-6.293-24.359-7.573-.406-.312-.75-.609-1.047-.859a13.65 13.65 0 011.047-.875c9.322-1.28 17.676-3.935 24.359-7.573a73.275 73.275 0 015.575-.218zm-66.425-25.609c6.605-2.811 15.053-4.356 23.797-4.356s17.192 1.546 23.796 4.356c3.639 1.546 5.919 3.154 7.199 4.294-.297.266-.656.562-1.062.875-9.321 1.281-17.676 3.935-24.359 7.558-1.826.156-3.7.218-5.574.218s-3.748-.062-5.59-.218c-6.667-3.623-15.021-6.277-24.344-7.558a18.603 18.603 0 01-1.062-.875c1.281-1.139 3.56-2.748 7.199-4.294zm-42.629 29.965c6.605-2.811 15.053-4.356 23.797-4.356 1.874 0 3.732.078 5.574.219 6.684 3.639 15.038 6.293 24.359 7.573.406.312.75.594 1.046.875-.297.25-.64.546-1.046.859-9.322 1.28-17.691 3.95-24.359 7.573a73.016 73.016 0 01-5.574.219c-1.89 0-3.748-.078-5.59-.219-6.667-3.623-15.021-6.293-24.344-7.573a30.434 30.434 0 01-1.062-.859c1.265-1.157 3.545-2.749 7.199-4.311zm-42.629 29.982c6.589-2.811 15.037-4.357 23.782-4.357 1.889 0 3.748.078 5.59.203 6.667 3.654 15.021 6.309 24.344 7.59.406.312.765.593 1.062.858-1.28 1.14-3.544 2.748-7.199 4.294-6.605 2.811-15.053 4.372-23.797 4.372-8.745 0-17.192-1.562-23.782-4.372-3.654-1.546-5.934-3.154-7.199-4.294 1.265-1.14 3.545-2.733 7.199-4.294zm-42.333 39.974c6.59-2.812 15.053-4.373 23.782-4.373 8.745 0 17.192 1.562 23.797 4.373 3.654 1.545 5.934 3.154 7.198 4.278-1.265 1.155-3.544 2.748-7.198 4.31-6.605 2.811-15.053 4.356-23.797 4.356s-17.192-1.546-23.782-4.356c-3.654-1.562-5.934-3.154-7.198-4.31 1.265-1.123 3.544-2.733 7.198-4.278z" fill="#f6bb42"/><path fill="#aab2bc" d="M244.856 383.616h21.331v26.702h-21.331z"/><path d="M270.936 369.982c0 8.448-6.855 15.287-15.287 15.287-8.448 0-15.303-6.839-15.303-15.287 0-8.447 6.855-15.287 15.303-15.287 8.431-.001 15.287 6.839 15.287 15.287z" fill="#434a54"/><path d="M319.467 165.19s.016-.016.016-.031V122.53c0-5.871-4.777-10.649-10.664-10.649H202.23c-5.887 0-10.665 4.778-10.665 10.649v42.66h127.902z" fill="#ccd1d9"/><g fill="#aab2bc"><path d="M212.895 165.19v-31.995h85.257v31.995h21.314c0-21.798.016-42.66.016-42.66 0-5.871-4.777-10.649-10.664-10.649H202.23c-5.887 0-10.665 4.778-10.665 10.649v42.66h21.33zM55.152 325.057l37.742 170.594h21.829L76.998 325.057zM434.159 325.088l-37.772 170.61h21.83l37.772-170.61zM298.152 325.088v95.893h-85.257v-95.908h-21.33v106.573c0 5.871 4.778 10.649 10.665 10.649h106.588c5.887 0 10.664-4.778 10.664-10.649V325.088h-21.33z"/><path d="M255.836 335.707c-17.661 0-31.979 14.318-31.979 31.979 0 17.66 14.319 31.979 31.979 31.979 17.645 0 31.964-14.319 31.964-31.979 0-17.661-14.319-31.979-31.964-31.979zm0 42.629c-5.887 0-10.665-4.778-10.665-10.649 0-5.872 4.778-10.665 10.665-10.665 5.871 0 10.649 4.793 10.649 10.665 0 5.871-4.778 10.649-10.649 10.649z"/></g><path opacity=".1" d="M0 325.057l7.823-21.33h495.98l7.869 21.33z"/></symbol><symbol id="treasures" viewBox="0 0 85 80"><path d="M78.717 34.29l6.273-9.4S85.784 1.528 70.824.319H14.174C-.787 1.527.008 24.891.008 24.891l6.3 9.308L0 51.217l7.082 28.09 70.834.011L85 51.225l-6.283-16.936z" fill="#FBBD50"/><path opacity=".2" d="M.098 24.92C.53 18.346 2.786 4.47 14.173 3.538H70.825C82.212 4.47 84.47 18.35 84.899 24.923l.09-.135S85.785 1.22 70.825 0H14.174C-.787 1.22.008 24.788.008 24.788l.09.133z" fill="#fff"/><path d="M85 51.318L0 51.31l6.309-16.992 72.408.09L85 51.318zM78.727 34.318l-72.425-.096L0 24.318h85l-6.273 10z" fill="#CE9912"/><path d="M44 65.317c0 1.104-.672 2.001-1.499 2.001-.828 0-1.501-.897-1.501-2.001 0-1.105.672-1.999 1.501-1.999.827 0 1.499.894 1.499 1.999z" fill="#3B3B3B"/><path d="M28.282 46.36c-2.036 0-4-.449-5.39-1.23-1.06-.596-1.691-1.336-1.691-1.979 0-1.307 2.76-3.209 7.081-3.209 2.037 0 4.003.45 5.393 1.233 1.059.594 1.692 1.333 1.692 1.976 0 1.31-2.76 3.209-7.084 3.209zM42.448 46.36c-2.036 0-4-.449-5.393-1.23-1.058-.596-1.688-1.336-1.688-1.979 0-1.307 2.757-3.209 7.081-3.209 2.036 0 4 .45 5.393 1.233 1.058.594 1.689 1.333 1.689 1.976 0 1.31-2.758 3.209-7.082 3.209z" fill="#FFF200"/><path d="M56.614 46.36c-2.036 0-4.002-.449-5.393-1.23-1.058-.596-1.691-1.336-1.691-1.979 0-1.307 2.76-3.209 7.084-3.209 2.036 0 4 .45 5.39 1.233 1.059.594 1.692 1.333 1.692 1.976 0 1.31-2.76 3.209-7.082 3.209zM35.367 41.38c-2.037 0-4.003-.447-5.393-1.23-1.059-.597-1.692-1.333-1.692-1.977 0-1.31 2.76-3.211 7.085-3.211 2.033 0 4 .451 5.39 1.232 1.058.594 1.691 1.336 1.691 1.98 0 1.307-2.76 3.206-7.081 3.206z" fill="#FFF200"/><path d="M49.53 41.38c-2.034 0-4-.447-5.39-1.23-1.059-.597-1.692-1.333-1.692-1.977 0-1.31 2.76-3.211 7.082-3.211 2.036 0 4.002.451 5.393 1.232 1.058.594 1.691 1.336 1.691 1.98 0 1.307-2.76 3.206-7.084 3.206z" fill="#FFF200"/><path d="M42.448 36.401c-2.036 0-4-.448-5.393-1.232-1.058-.593-1.688-1.333-1.688-1.976 0-1.307 2.757-3.209 7.081-3.209 2.036 0 4 .449 5.393 1.232 1.058.594 1.689 1.334 1.689 1.977 0 1.307-2.758 3.209-7.082 3.209zM15.222 51.353h12.046c.69-.519 1.066-1.081 1.066-1.564 0-.643-.633-1.38-1.691-1.976-1.39-.784-3.357-1.23-5.393-1.23-4.322 0-7.082 1.899-7.082 3.206 0 .503.384 1.06 1.054 1.564z" fill="#FFF200"/><path d="M29.387 51.353h12.047c.69-.519 1.064-1.081 1.064-1.564 0-.643-.63-1.38-1.69-1.976-1.39-.784-3.356-1.23-5.392-1.23-4.324 0-7.082 1.899-7.082 3.206 0 .503.384 1.06 1.053 1.564z" fill="#FFF200"/><path d="M50 51.318H34v16h16v-16z" fill="#CCD1D9"/><path d="M43.55 51.353h12.047c.69-.519 1.066-1.081 1.066-1.564 0-.643-.63-1.38-1.688-1.976-1.394-.784-3.357-1.23-5.393-1.23-4.324 0-7.085 1.9-7.085 3.206 0 .503.387 1.061 1.053 1.564zM57.716 51.353h12.047c.69-.519 1.066-1.081 1.066-1.564 0-.643-.633-1.38-1.691-1.976-1.39-.784-3.357-1.23-5.39-1.23-4.325 0-7.085 1.9-7.085 3.206 0 .503.384 1.061 1.053 1.564z" fill="#FFF200"/><path d="M72.545 51.318c.292-.487.455-1.01.455-1.554 0-2.507-3.383-4.58-7.77-4.904.35-.526.542-1.099.542-1.694 0-2.395-3.085-4.39-7.18-4.85l.002-.098c0-2.397-3.083-4.393-7.18-4.852.003-.03.005-.064.005-.098 0-2.733-4.016-4.95-8.97-4.95-4.955 0-8.97 2.217-8.97 4.95 0 .034.002.067.005.098-4.098.46-7.181 2.455-7.181 4.852 0 .031.003.065.003.098-4.095.46-7.18 2.455-7.18 4.85 0 .598.191 1.173.546 1.704-4.34.346-7.672 2.405-7.672 4.894 0 .543.163 1.067.455 1.554h60.09zm-33.216-.843c-1.112.464-2.534.72-4.006.72-1.471 0-2.893-.256-4.003-.72-.615-.258-.998-.52-1.211-.712.213-.185.596-.45 1.211-.706 1.11-.464 2.532-.722 4.003-.722 1.472 0 2.894.258 4.006.722.612.255.996.52 1.212.706-.216.191-.6.454-1.212.712zm-.886-6.6c-.612-.255-.996-.52-1.212-.71.05-.043.11-.09.18-.14 1.568-.212 2.974-.65 4.097-1.254.31-.02.625-.034.94-.034.316 0 .632.013.939.034 1.125.603 2.531 1.042 4.1 1.253.068.052.129.098.179.142-.216.188-.6.454-1.212.709-1.112.464-2.534.722-4.005.722-1.472 0-2.894-.258-4.006-.722zm15.236 6.6c-1.109.464-2.53.72-4.003.72-1.471 0-2.893-.256-4.005-.72-.613-.258-.996-.52-1.212-.712.216-.185.6-.45 1.212-.706 1.112-.464 2.534-.722 4.005-.722 1.472 0 2.894.258 4.003.722.615.255.999.52 1.212.706-.213.191-.597.454-1.212.712zm14.353-1.418c.615.255 1 .52 1.212.706-.213.191-.597.454-1.212.712-1.109.464-2.533.72-4.002.72-1.472 0-2.894-.256-4.006-.72-.615-.258-.999-.52-1.212-.712.214-.185.597-.45 1.212-.706 1.112-.464 2.534-.722 4.006-.722 1.469 0 2.893.258 4.002.722zm-11.23-7.32c1.471 0 2.893.256 4.003.72.614.258.998.52 1.211.709-.213.188-.596.454-1.211.709-1.11.464-2.532.722-4.003.722-1.472 0-2.894-.258-4.006-.722-.615-.255-.999-.521-1.211-.71.05-.043.11-.09.178-.14 1.57-.212 2.976-.65 4.098-1.254.31-.02.623-.034.94-.034zm-7.178-4.95c1.471 0 2.893.256 4.005.72.615.258 1 .52 1.212.711-.05.041-.11.09-.179.142-1.569.211-2.975.652-4.097 1.25a12.532 12.532 0 01-1.88 0c-1.125-.598-2.53-1.039-4.1-1.25-.068-.051-.126-.1-.176-.142a2.3 2.3 0 01.176-.144c1.57-.212 2.975-.65 4.1-1.25.308-.024.623-.037.939-.037zm-11.18-4.228c1.11-.464 2.533-.72 4.005-.72 1.471 0 2.893.256 4.005.72.612.255.996.52 1.212.709-.05.044-.11.093-.18.145-1.568.211-2.974.65-4.1 1.247-.306.026-.622.036-.937.036-.316 0-.631-.01-.941-.036-1.122-.598-2.529-1.036-4.098-1.247a3.178 3.178 0 01-.178-.145c.215-.188.599-.454 1.211-.709zm-7.176 4.948c1.112-.465 2.534-.72 4.005-.72.316 0 .629.013.939.037 1.125.6 2.53 1.038 4.1 1.25.068.051.126.098.176.144-.05.042-.108.09-.176.142-1.57.212-2.978.652-4.1 1.25a12.515 12.515 0 01-1.88 0c-1.122-.598-2.528-1.038-4.097-1.25a5.138 5.138 0 01-.179-.142c.213-.19.597-.454 1.212-.711zm-7.175 4.95c1.109-.464 2.53-.72 4.003-.72.318 0 .63.013.94.034 1.123.603 2.529 1.042 4.098 1.253.068.052.129.098.179.142-.216.188-.597.454-1.212.709-1.112.464-2.534.722-4.005.722-1.472 0-2.894-.258-4.003-.722-.615-.255-1-.52-1.212-.71.213-.187.597-.45 1.212-.708zm-7.126 6.6c1.11-.464 2.534-.722 4.003-.722 1.472 0 2.894.258 4.006.722.615.255.998.52 1.211.706-.213.191-.596.454-1.211.712-1.112.464-2.534.72-4.006.72-1.472 0-2.893-.256-4.003-.72-.615-.258-.999-.52-1.211-.712.213-.185.596-.45 1.211-.706z" fill="#FFF200"/><path d="M44 61.318h-3v4h3v-4z" fill="#A5A3A3"/><path d="M45 58.818a2.5 2.5 0 11-5 0 2.5 2.5 0 015 0z" fill="#434A54"/><path d="M52.997 24.318s.003-.002.003-.005v-6.397c0-.88-.784-1.598-1.75-1.598h-17.5c-.966 0-1.75.717-1.75 1.598V24.318h20.997z" fill="#CCD1D9"/><path d="M35.367 24.788v-5.315H49.53v5.315h3.54c0-3.621.003-7.087.003-7.087 0-.975-.794-1.769-1.772-1.769H33.595c-.978 0-1.772.794-1.772 1.77v7.086h3.544zM9.162 51.346l6.27 28.339h3.626l-6.267-28.34H9.162zM72.123 51.35L65.85 79.694h3.626L75.75 51.35h-3.627zM49.53 51.35v15.93H35.367V51.349h-3.544v17.704c0 .976.794 1.77 1.772 1.77H51.3c.978 0 1.772-.794 1.772-1.77V51.351H49.53z" fill="#A5A3A3"/><path d="M42.5 53.115a5.313 5.313 0 000 10.624 5.312 5.312 0 000-10.624zm0 7.081a1.772 1.772 0 01-1.772-1.769c0-.975.794-1.771 1.772-1.771.975 0 1.77.796 1.77 1.771 0 .976-.795 1.77-1.77 1.77z" fill="#A5A3A3"/><path opacity=".1" d="M0 51.318l1.3-4h82.393l1.307 4H0z" fill="#3B3B3B"/></symbol><symbol id="wallet" viewBox="0 0 458.531 458.531"><path d="M336.688 343.962c-21.972-.001-39.848-17.876-39.848-39.848v-66.176c0-21.972 17.876-39.847 39.848-39.847h103.83c.629 0 1.254.019 1.876.047v-65.922c0-16.969-13.756-30.725-30.725-30.725H30.726C13.756 101.49 0 115.246 0 132.215v277.621c0 16.969 13.756 30.726 30.726 30.726h380.943c16.969 0 30.725-13.756 30.725-30.726v-65.922c-.622.029-1.247.048-1.876.048h-103.83z"/><path d="M440.518 219.925h-103.83c-9.948 0-18.013 8.065-18.013 18.013v66.176c0 9.948 8.065 18.013 18.013 18.013h103.83c9.948 0 18.013-8.064 18.013-18.013v-66.176c0-9.949-8.065-18.013-18.013-18.013zm-68.052 77.099c-14.359 0-25.999-11.64-25.999-25.999s11.64-25.999 25.999-25.999c14.359 0 25.999 11.64 25.999 25.999 0 14.359-11.64 25.999-25.999 25.999zM358.169 45.209c-6.874-20.806-29.313-32.1-50.118-25.226L151.958 71.552h214.914l-8.703-26.343z"/></symbol></svg>